<?xml version="1.0" encoding="UTF-8" standalone="no"?>
<svg
   width="256"
   height="256"
   version="1.1"
   id="svg48"
   sodipodi:docname="Velaptor-Logo-Brown-v1.svg"
   xml:space="preserve"
   inkscape:version="1.2.1 (9c6d41e410, 2022-07-14)"
   inkscape:export-filename="Velaptor-Logo-v1-256x256.png"
   inkscape:export-xdpi="137.94"
   inkscape:export-ydpi="137.94"
   xmlns:inkscape="http://www.inkscape.org/namespaces/inkscape"
   xmlns:sodipodi="http://sodipodi.sourceforge.net/DTD/sodipodi-0.dtd"
   xmlns="http://www.w3.org/2000/svg"
   xmlns:svg="http://www.w3.org/2000/svg"><defs
     id="defs52"><filter
       inkscape:collect="always"
       style="color-interpolation-filters:sRGB"
       id="filter9970"
       x="-0.012616888"
       y="-0.012361236"
       width="1.0252213"
       height="1.024863"><feGaussianBlur
         inkscape:collect="always"
         stdDeviation="0.023938373"
         id="feGaussianBlur9972" /></filter><filter
       inkscape:collect="always"
       style="color-interpolation-filters:sRGB"
       id="filter9974"
       x="-0.0082879309"
       y="-0.010835096"
       width="1.0165847"
       height="1.0216449"><feGaussianBlur
         inkscape:collect="always"
         stdDeviation="0.032836937"
         id="feGaussianBlur9976" /></filter><filter
       inkscape:collect="always"
       style="color-interpolation-filters:sRGB"
       id="filter9978"
       x="-0.021504001"
       y="-0.011946936"
       width="1.0430005"
       height="1.0240439"><feGaussianBlur
         inkscape:collect="always"
         stdDeviation="0.019128985"
         id="feGaussianBlur9980" /></filter><filter
       inkscape:collect="always"
       style="color-interpolation-filters:sRGB"
       id="filter9982"
       x="-0.020864696"
       y="-0.022370704"
       width="1.0417298"
       height="1.0449288"><feGaussianBlur
         inkscape:collect="always"
         stdDeviation="0.013323133"
         id="feGaussianBlur9984" /></filter><filter
       inkscape:collect="always"
       style="color-interpolation-filters:sRGB"
       id="filter9986"
       x="-0.04189198"
       y="-0.029787519"
       width="1.083784"
       height="1.0596085"><feGaussianBlur
         inkscape:collect="always"
         stdDeviation="0.10753835"
         id="feGaussianBlur9988" /></filter><filter
       inkscape:collect="always"
       style="color-interpolation-filters:sRGB"
       id="filter9990"
       x="-0.0020997603"
       y="-0.0052701797"
       width="1.0041995"
       height="1.0105404"><feGaussianBlur
         inkscape:collect="always"
         stdDeviation="0.22525434"
         id="feGaussianBlur9992" /></filter><filter
       inkscape:collect="always"
       style="color-interpolation-filters:sRGB"
       id="filter9994"
       x="-0.0081717481"
       y="-0.03781878"
       width="1.0163435"
       height="1.0762298"><feGaussianBlur
         inkscape:collect="always"
         stdDeviation="0.0022723189"
         id="feGaussianBlur9996" /></filter><filter
       inkscape:collect="always"
       style="color-interpolation-filters:sRGB"
       id="filter886"
       x="-0.0098410063"
       y="-0.010452051"
       width="1.019672"
       height="1.0209046"><feGaussianBlur
         inkscape:collect="always"
         stdDeviation="0.030173659"
         id="feGaussianBlur888" /></filter><filter
       inkscape:collect="always"
       style="color-interpolation-filters:sRGB"
       id="filter986"
       x="-0.0020882999"
       y="-0.0030291574"
       width="1.0041474"
       height="1.0060357"><feGaussianBlur
         inkscape:collect="always"
         stdDeviation="0.01294108"
         id="feGaussianBlur988" /></filter><filter
       inkscape:collect="always"
       style="color-interpolation-filters:sRGB"
       id="filter990"
       x="-0.0023440911"
       y="-0.0031755291"
       width="1.0045044"
       height="1.0063284"><feGaussianBlur
         inkscape:collect="always"
         stdDeviation="0.01294292"
         id="feGaussianBlur992" /></filter><filter
       inkscape:collect="always"
       style="color-interpolation-filters:sRGB"
       id="filter1823"
       x="-0.00013820659"
       y="-0.00010603192"
       width="1.0002764"
       height="1.0002121"><feGaussianBlur
         inkscape:collect="always"
         stdDeviation="0.00018707433"
         id="feGaussianBlur1821" /></filter><filter
       inkscape:collect="always"
       style="color-interpolation-filters:sRGB"
       id="filter1823-6"
       x="-0.00013820659"
       y="-0.00010603192"
       width="1.0002764"
       height="1.0002121"><feGaussianBlur
         inkscape:collect="always"
         stdDeviation="0.00018707433"
         id="feGaussianBlur1821-6" /></filter><filter
       inkscape:collect="always"
       style="color-interpolation-filters:sRGB"
       id="filter1823-6-0"
       x="-0.00013820659"
       y="-0.00010603192"
       width="1.0002764"
       height="1.0002121"><feGaussianBlur
         inkscape:collect="always"
         stdDeviation="0.00018707433"
         id="feGaussianBlur1821-6-3" /></filter><filter
       inkscape:collect="always"
       style="color-interpolation-filters:sRGB"
       id="filter1823-6-0-4"
       x="-0.00013820659"
       y="-0.00010603192"
       width="1.0002764"
       height="1.0002121"><feGaussianBlur
         inkscape:collect="always"
         stdDeviation="0.00018707433"
         id="feGaussianBlur1821-6-3-9" /></filter><filter
       inkscape:collect="always"
       style="color-interpolation-filters:sRGB"
       id="filter1823-6-0-4-8"
       x="-0.00013820659"
       y="-0.00010603192"
       width="1.0002764"
       height="1.0002121"><feGaussianBlur
         inkscape:collect="always"
         stdDeviation="0.00018707433"
         id="feGaussianBlur1821-6-3-9-2" /></filter></defs><sodipodi:namedview
     id="namedview50"
     pagecolor="#505050"
     bordercolor="#ffffff"
     borderopacity="1"
     inkscape:showpageshadow="0"
     inkscape:pageopacity="0"
     inkscape:pagecheckerboard="1"
     inkscape:deskcolor="#505050"
     showgrid="false"
     inkscape:zoom="4.5271805"
     inkscape:cx="184.99373"
     inkscape:cy="116.18711"
     inkscape:window-width="3840"
     inkscape:window-height="2054"
     inkscape:window-x="7669"
     inkscape:window-y="-11"
     inkscape:window-maximized="1"
     inkscape:current-layer="layer2" /><g
     inkscape:groupmode="layer"
     id="layer2"
     inkscape:label="SVGNew"
     style="display:inline;filter:url(#filter990)"
     transform="matrix(0.83422167,0,0,0.83422167,-1.1660696,38.25853)"><path
       style="display:inline;mix-blend-mode:normal;fill:#ad7e61;fill-opacity:1;stroke:#604c3b;stroke-width:1.214;stroke-linecap:round;stroke-linejoin:round;stroke-dasharray:none;stroke-opacity:1;filter:url(#filter886)"
       d="m 118.4375,197.90625 c -2.0625,-4.14583 -3.5,-8.01042 -3.1875,-11.53125 1.27004,-6.58157 3.93373,-9.82236 8.9375,-12.125 8.68498,-2.14568 14.6163,-3.37889 14.125,-9.75 -0.375,-5.4375 1.3125,-7.6875 3.0625,-10.8125 4.375,0.625 11.5,0.0625 15.9375,-0.375 6.72917,-0.9375 10.64583,-1.3125 14.8125,-4.8125 2.05988,3.85201 3.83079,3.66046 3.83079,3.66046 2.38462,0.1952 5.3433,0.60118 8.35671,0.0895 -3.39583,7.3125 -5.35417,11.3125 -10.5625,15.5625 -5.35417,4.625 -8.89583,7.5 -13.0625,9.375 0,0 -16.08797,9.12964 -23.53845,12.01647 1.56513,10.00209 16.48771,9.76695 25.10095,9.98353 3.64583,0.85417 5.66667,2.39583 8,4.3125 3.05752,4.5856 4.04167,6.10417 3.0625,10 l -41.15625,-0.125 c -4.31296,-4.07625 -5.84963,-4.2876 -8.15503,-7.33714 -1.24677,-1.62897 -3.09065,-2.6022 -5.56372,-8.13161 z"
       id="path391"
       sodipodi:nodetypes="ccccccccccccccccccc"
       inkscape:label="LeftLeg" /><path
       style="display:inline;fill:#ad7e61;fill-opacity:1;stroke:#604c3b;stroke-width:1.214;stroke-linecap:round;stroke-linejoin:round;stroke-dasharray:none;stroke-opacity:1;filter:url(#filter986)"
       d="m 204.00031,9.1923881 c 13.53871,-8.36987778 31.29042,-8.7022709 43.31029,-6.7175147 7.81305,1.3480865 12.90735,3.7586731 19.7829,7.5130096 7.14971,5.316679 13.26816,11.570857 17.54287,16.075036 3.81592,4.045337 6.41308,7.996925 9.01025,12.104762 5.26169,8.962048 6.92962,11.392845 10.81631,21.292393 3.98228,8.200203 3.42086,13.406386 2.42141,20.442992 -0.40262,2.365959 -1.61775,4.638167 -3.27037,6.629126 -5.76322,4.438315 -13.56527,5.724821 -25.48474,4.663136 -15.7541,-0.612409 -15.05732,1.210744 -31.61413,-1.304381 -8.01883,-0.66761 -15.98384,-1.307088 -23.95324,-2.828427 -2.77604,-0.392819 -5.80207,-0.879389 -8.42186,-1.834708 -3.40785,-1.273922 -6.64759,-3.235343 -8.72211,-5.603015 -0.78181,4.222414 -2.21988,11.257328 -4.31419,16.604742 -1.62485,3.880181 -3.59951,8.584821 -7.05697,11.498601 -0.55696,0.36832 -3.34317,3.03459 -4.81834,9.38264 -1.50427,5.75544 -1.67198,12.02035 -1.55706,16.76555 0.0414,1.65246 3.88974,-2.01014 9.38074,-3.51456 5.37715,-1.47322 12.03672,-1.38878 13.98167,-0.79773 3.63521,1.1047 13.22898,4.44314 14.05305,18.2215 0.0364,4.03865 2.53694,15.66746 -9.86149,18.15982 -2.06472,0.41505 -6.22864,-1.2341 -9.12118,-6.80359 -2.18844,-4.21376 -2.56918,-9.31408 -2.15586,-14.94605 -4.88054,3.14338 -15.24208,7.50365 -21.21991,8.27508 -2.12699,0.23978 -6.59201,-0.28121 -6.59201,-0.28121 -2.92093,-0.1993 -5.10956,-5.62295 -6.5422,-9.6635 -1.31989,-3.74901 -2.59552,-11.54227 -3.29533,-17.17058 -0.0372,-0.29944 -8.91676,2.14539 -14.4354,1.89667 -1.41467,-0.0638 -1.36487,7.25569 -5.77006,15.98535 -2.93413,5.67807 -4.32103,11.36247 -8.58125,15.97329 -6.95691,7.38889 -10.10615,10.3035 -17.99187,15.16131 -2.29745,1.41529 -18.63241,10.31983 -26.094539,12.59437 3.420603,4.55283 7.660789,11.19904 15.511809,10.846 17.40232,-0.78254 19.4375,3.875 19.4375,3.875 2.21928,2.397 4.4375,5.91667 3.75,11.6875 l -45.187501,0.3125 c -3.769405,-4.23491 -6.362987,-8.85543 -9.625,-14.125 -2.583333,-4.33333 -3.854167,-8.47917 -4.5625,-12.625 -0.770833,-5.08333 2.458333,-9.60417 5.1875,-12.25 5.4375,-4.625 16.5,-2.875 18.75,-9.8125 l 0.25,-7.5625 c -2.291667,-8.52083 -5.145833,-11.91667 -7.1875,-21.4375 -2.479167,-6.85417 -4.645833,-15.08333 -4.90625,-20.34375 C 84.166666,107.33333 81.802082,103.88542 78.124999,98.6875 71.414809,89.018545 66.10535,82.29436 54.8125,74.312499 39.027903,62.429483 21.175388,57.458209 2.1875,52.245558 c 22.111145,-2.949113 30.827955,-2.106161 49.891873,-0.907931 12.873204,1.205118 23.978641,4.089614 36.233126,9.537373 11.916671,4.833333 24.458331,11.291666 35.750001,18.624999 13.39438,9.457933 28.91583,13.702796 42.6875,6.5625 26.31154,-18.416346 5.56016,-36.250491 21.70812,-62.513956 5.86366,-8.404673 10.01792,-11.247831 15.54219,-14.3561549 z"
       id="path404"
       sodipodi:nodetypes="cccccccccccccccccsscssccccssccscsccccccccccccccccccc"
       inkscape:label="BodyRightSide" /><g
       id="g4022"
       inkscape:label="Stripes"
       style="display:inline;fill:#5b4233;fill-opacity:1;stroke:none;stroke-width:1.01405;stroke-linecap:round;stroke-linejoin:round;stroke-dasharray:none;filter:url(#filter9990)"><path
         style="fill:#5b4233;fill-opacity:1;stroke:none;stroke-width:1.01405;stroke-linecap:round;stroke-linejoin:round;stroke-dasharray:none;stroke-opacity:1"
         d="m 242.31665,2.0771262 c 3.38822,0.2357022 7.0416,1.0459287 10.78338,1.9003494 -3.55027,8.4263564 -9.35443,15.2175274 -15.77732,20.6386794 2.72531,-7.380427 5.93675,-14.274718 4.99394,-22.5390288 z"
         id="path1930"
         sodipodi:nodetypes="cccc" /><path
         style="fill:#5b4233;fill-opacity:1;stroke:none;stroke-width:1.01405;stroke-linecap:round;stroke-linejoin:round;stroke-dasharray:none;stroke-opacity:1"
         d="m 277.82671,19.423298 c -2.61223,4.992435 -5.45864,7.553481 -9.03771,10.076271 5.48745,0.780764 11.01909,0.191508 15.51216,-3.425048 -2.09186,-2.415948 -4.25001,-4.633022 -6.47445,-6.651223 z"
         id="path1939"
         sodipodi:nodetypes="cccc" /><path
         style="fill:#5b4233;fill-opacity:1;stroke:none;stroke-width:1.01405;stroke-linecap:round;stroke-linejoin:round;stroke-dasharray:none;stroke-opacity:1"
         d="m 291.28382,35.18493 c -1.84375,2.322917 -4.46875,4.583333 -7.40625,6.5 2.72917,0.644396 7.58333,0.871863 11.375,-0.21875 -1.26042,-2.239583 -2.98958,-5.088542 -3.96875,-6.28125 z"
         id="path2421"
         sodipodi:nodetypes="cccc" /><path
         style="fill:#5b4233;fill-opacity:1;stroke:none;stroke-width:1.01405;stroke-linecap:round;stroke-linejoin:round;stroke-dasharray:none;stroke-opacity:1"
         d="m 298.23334,46.489492 c -1.09749,1.524699 -2.28336,2.784233 -4.08796,4.176349 1.98874,-0.03683 4.11005,0.01473 6.09879,-0.508233 z"
         id="path2468"
         sodipodi:nodetypes="cccc" /><path
         style="fill:#5b4233;fill-opacity:1;stroke:none;stroke-width:1.01405;stroke-linecap:round;stroke-linejoin:round;stroke-dasharray:none;stroke-opacity:1"
         d="M 217.66189,3.5853249 C 218.72255,10.516444 219.8716,17.955796 218.17012,25.83709 215.90149,18.685 213.83173,12.019046 209.55226,6.3032666 Z"
         id="path2470"
         sodipodi:nodetypes="cccc" /><path
         style="fill:#5b4233;fill-opacity:1;stroke:none;stroke-width:1.01405;stroke-linecap:round;stroke-linejoin:round;stroke-dasharray:none;stroke-opacity:1"
         d="m 196.81332,13.761053 c 5.34013,5.244375 7.05634,11.173761 8.30851,17.368311 -4.40468,-4.456246 -7.90339,-8.205385 -15.46796,-9.25868 z"
         id="path2474"
         sodipodi:nodetypes="cccc" /><path
         style="fill:#5b4233;fill-opacity:1;stroke:none;stroke-width:1.01405;stroke-linecap:round;stroke-linejoin:round;stroke-dasharray:none;stroke-opacity:1"
         d="m 182.08434,42.25 c 4.33715,0.848816 11.85729,6.02515 12.90625,11.375 -4.09375,-2.520833 -8.53125,-3.791667 -13.34375,-3.15625 z"
         id="path2497"
         sodipodi:nodetypes="cccc" /><path
         style="fill:#5b4233;fill-opacity:1;stroke:none;stroke-width:1.01405;stroke-linecap:round;stroke-linejoin:round;stroke-dasharray:none;stroke-opacity:1"
         d="m 172.86833,80.988507 c 2.73694,4.327693 5.3778,6.266392 11.52236,9.393359 -6.89176,0.481139 -11.53003,2.155048 -18.27686,-3.489948 2.72548,-2.07681 5.27628,-3.330524 6.7545,-5.903411 z"
         id="path2499"
         sodipodi:nodetypes="cccc" /><path
         style="fill:#5b4233;fill-opacity:1;stroke:none;stroke-width:1.01405;stroke-linecap:round;stroke-linejoin:round;stroke-dasharray:none;stroke-opacity:1"
         d="m 162.71875,88.031249 c -0.78125,4.416667 -0.3125,8.927084 1.0625,13.125001 -4.29167,-3.09375 -8.45833,-5.468751 -9.40625,-11.468751 3,-0.208333 5.5625,-0.729167 8.34375,-1.65625 z"
         id="path2501"
         sodipodi:nodetypes="cccc" /><path
         style="fill:#5b4233;fill-opacity:1;stroke:none;stroke-width:1.01405;stroke-linecap:round;stroke-linejoin:round;stroke-dasharray:none;stroke-opacity:1"
         d="m 122.5,78.687499 c -4.54167,3.135417 -6.30208,6.270833 -7.0625,13.25 C 111.25,85.833332 110.125,79.604166 113,72.874999 Z"
         id="path2503"
         sodipodi:nodetypes="cccc" /><path
         style="fill:#5b4233;fill-opacity:1;stroke:none;stroke-width:1.01405;stroke-linecap:round;stroke-linejoin:round;stroke-dasharray:none;stroke-opacity:1"
         d="m 107.84375,70.281249 c -2.73937,2.375 -4.47556,5.59375 -4.71875,9.71875 -2.17708,-4.53125 -4.197917,-8.65625 -3.28125,-13.59375 z"
         id="path2505"
         sodipodi:nodetypes="cccc" /><path
         style="fill:#5b4233;fill-opacity:1;stroke:none;stroke-width:1.01405;stroke-linecap:round;stroke-linejoin:round;stroke-dasharray:none;stroke-opacity:1"
         d="m 93.912533,63.59375 c -1.196463,2.231997 -0.966351,3.959313 -0.965419,7.06813 -2.683236,-2.387997 -3.638584,-5.848027 -4.229013,-9.484643 z"
         id="path2507"
         sodipodi:nodetypes="cccc" /><path
         style="fill:#5b4233;fill-opacity:1;stroke:none;stroke-width:1.01405;stroke-linecap:round;stroke-linejoin:round;stroke-dasharray:none;stroke-opacity:1"
         d="m 83.906249,59.25 c -0.171875,1.75 -0.110315,2.090687 -0.792814,5.396907 -0.702673,-1.496919 -0.911698,-4.397722 -2.644686,-6.834407 1.519792,0.520409 3.4375,1.4375 3.4375,1.4375 z"
         id="path2509"
         sodipodi:nodetypes="cccc" /><path
         style="fill:#5b4233;fill-opacity:1;stroke:none;stroke-width:1.01405;stroke-linecap:round;stroke-linejoin:round;stroke-dasharray:none;stroke-opacity:1"
         d="m 73.843749,55.6875 c 0.596778,1.642758 0.46485,2.876788 -0.875,4.921875 -0.699225,-2.048663 -1.668053,-3.854225 -3.5,-6.140625 1.246178,0.24485 3.325097,0.950992 4.375,1.21875 z"
         id="path2511"
         sodipodi:nodetypes="cccc" /><path
         style="fill:#5b4233;fill-opacity:1;stroke:none;stroke-width:1.01405;stroke-linecap:round;stroke-linejoin:round;stroke-dasharray:none;stroke-opacity:1"
         d="m 61.0625,52.578125 c 0.34375,1.9375 -0.875,3.75 -0.875,3.75 -0.360581,-1.576021 -0.964806,-2.797368 -2.3125,-4.234375 z"
         id="path2513"
         sodipodi:nodetypes="cccc" /><path
         style="fill:#5b4233;fill-opacity:1;stroke:none;stroke-width:1.01405;stroke-linecap:round;stroke-linejoin:round;stroke-dasharray:none;stroke-opacity:1"
         d="m 45.3125,51.15625 c -0.03755,0.890778 -0.406557,1.803654 -0.941291,2.78282 -0.375307,-1.148992 -0.618031,-2.043869 -1.589959,-3.060279 z"
         id="path2515"
         sodipodi:nodetypes="cccc"
         inkscape:label="path2515" /><path
         style="fill:#5b4233;fill-opacity:1;stroke:none;stroke-width:1.01405;stroke-linecap:round;stroke-linejoin:round;stroke-dasharray:none;stroke-opacity:1"
         d="m 126.03125,80.999999 c -3.38542,5.135417 -1.36458,13.239583 4.28125,18.59375 0.13761,-5.240316 1.08737,-9.845095 4.25,-13.625 -3.0625,-1.625 -5.65625,-2.96875 -8.53125,-4.96875 z"
         id="path4000"
         sodipodi:nodetypes="cccc"
         inkscape:label="path4000" /><path
         style="fill:#5b4233;fill-opacity:1;stroke:none;stroke-width:1.01405;stroke-linecap:round;stroke-linejoin:round;stroke-dasharray:none;stroke-opacity:1"
         d="m 140.25,87.874999 c -0.55208,7.458334 4.17708,13.541671 10.0625,16.781251 -1.875,-6.375 -2.0625,-9.875001 -0.53125,-14.875001 -3.11458,0.125 -6.44792,-0.75 -9.53125,-1.90625 z"
         id="path4002"
         sodipodi:nodetypes="cccc" /></g><path
       style="display:inline;fill:#ad7e61;fill-opacity:1;stroke:#604c3b;stroke-width:1.214;stroke-linecap:round;stroke-linejoin:round;stroke-dasharray:none;stroke-opacity:1;filter:url(#filter9970)"
       d="m 214.4375,102.09375 v 19.96875 c 6.77083,-2.4375 13.85417,-3.9375 19.375,-3.5 6.83333,2.22917 11.41667,5.58333 15.125,13.1875 1.35417,5.0625 1.70833,10.125 0.3125,15.1875 -1.25,6.4375 -7,9.4375 -9.625,8.8125 -3.79167,0.0208 -7.20833,-2.83333 -9.4375,-9.125 -1.35417,-3.47917 -1.70833,-7.20833 -1.0625,-12.125 l -7.03401,2.83893 c -6.09006,-8.07818 -12.53774,-9.49219 -24.60658,-7.26777 8.18261,-9.16879 10.9885,-16.16335 16.95309,-27.97741 z"
       id="path1089"
       sodipodi:nodetypes="ccccccccccc"
       inkscape:label="LeftArm" /><path
       d="M 84.770155,115.48835 C 84.093072,107.29043 81.728488,103.84252 78.051405,98.6446 71.341215,88.97564 66.031756,82.251458 54.738906,74.269597 38.954309,62.386581 21.101794,57.415307 2.1139058,52.202656 41.379108,57.095268 72.140513,75.082284 84.330138,88.683592 Z"
       style="display:inline;fill:#5b4233;fill-opacity:1;stroke:#604c3b;stroke-width:1.214;stroke-linecap:round;stroke-linejoin:round;stroke-dasharray:none;stroke-opacity:1;filter:url(#filter9974)"
       id="path1163"
       inkscape:label="TailUnderSide"
       sodipodi:nodetypes="cccccc" /><path
       id="path1232"
       style="display:inline;fill:#5b4233;fill-opacity:1;stroke:#604c3b;stroke-width:1.214;stroke-linecap:round;stroke-linejoin:round;stroke-dasharray:none;stroke-opacity:1;filter:url(#filter9978)"
       d="m 187.69215,133.8561 c 0.0414,1.65246 4.28749,-2.14273 9.77849,-3.64715 3.72735,-4.60838 7.74836,-9.41337 11.62438,-17.41842 l 5.16128,-10.40988 c 1.5148,-5.465005 2.6644,-10.685371 3.70065,-16.082514 -4.97035,-0.93018 -9.39873,-3.467425 -12.567,-6.678845 -0.78181,4.22241 -2.21988,11.25733 -4.31419,16.60474 -1.62485,3.880169 -3.59951,8.584809 -7.05696,11.498589 -0.55697,0.36832 -3.34317,3.03459 -4.81835,9.38264 -0.73758,3.17402 -1.22853,6.28098 -1.48985,9.11679 -0.13068,1.4179 -0.1708,3.51932 -0.0672,7.64876"
       sodipodi:nodetypes="ccccccccssc"
       inkscape:label="Chest" /><path
       d="m 169.59203,142.53449 c -1.31989,-3.74901 -2.59551,-11.54227 -3.29532,-17.17058 -0.0372,-0.29944 -8.91677,2.14539 -14.43541,1.89667 -1.41467,-0.0638 -1.36487,7.25569 -5.77006,15.98535 -0.62986,1.24818 -2.80724,6.0361 -4.67165,10.32667 4.27036,0.74405 11.56789,0.15946 16.00539,-0.27804 7.45837,-1.02589 10.57954,-1.44509 14.6181,-4.82397 -0.53933,-1.13186 -1.46584,-3.13775 -2.45105,-5.9361 z"
       style="display:inline;fill:#5b4233;fill-opacity:1;stroke:#604c3b;stroke-width:1.214;stroke-linecap:round;stroke-linejoin:round;stroke-dasharray:none;stroke-opacity:1;filter:url(#filter9982)"
       id="path1841"
       sodipodi:nodetypes="sssscccs"
       inkscape:label="Belly" /><path
       id="path1924"
       style="fill:#604c3b;fill-opacity:1;stroke:#604c3b;stroke-width:1.04109;stroke-linecap:round;stroke-linejoin:round;stroke-dasharray:none;stroke-opacity:1;filter:url(#filter9986)"
       inkscape:label="Eye"
       d="m 247.9082,37.513672 a 9.2144852,13.147767 8.7574508 0 0 -9.90429,11.664062 9.2144852,13.147767 8.7574508 0 0 7.10547,14.396485 9.2144852,13.147767 8.7574508 0 0 11.10937,-11.591797 9.2144852,13.147767 8.7574508 0 0 -7.10547,-14.396484 9.2144852,13.147767 8.7574508 0 0 -1.20508,-0.07227 z m 0.32618,4.8125 a 4.3772888,4.5335388 0 0 1 4.37695,4.533203 4.3772888,4.5335388 0 0 1 -4.37695,4.533203 4.3772888,4.5335388 0 0 1 -4.37696,-4.533203 4.3772888,4.5335388 0 0 1 4.37696,-4.533203 z" /><g
       inkscape:groupmode="layer"
       id="layer1"
       inkscape:label="Mouth"
       style="display:inline"><g
         inkscape:groupmode="layer"
         id="layer4"
         inkscape:label="Teeth"
         style="display:inline"><path
           style="display:inline;fill:#c9c9c9;fill-opacity:1;stroke:none;stroke-width:1.01405;stroke-linecap:round;stroke-linejoin:round;stroke-dasharray:none;stroke-opacity:1;filter:url(#filter1823-6-0-4-8)"
           d="m 273.76581,81.636741 c 0.34375,1.9375 -0.875,3.75 -0.875,3.75 -0.53192,-1.526525 -0.96481,-2.79737 -2.3125,-4.23437 z"
           id="path2513-9-7-8-7-2"
           sodipodi:nodetypes="cccc"
           transform="matrix(1.3359155,0.14157923,-0.19976731,1.4136406,-96.00553,-82.255771)"
           inkscape:label="Tooth5" /><path
           style="display:inline;fill:#c9c9c9;fill-opacity:1;stroke:none;stroke-width:1.01405;stroke-linecap:round;stroke-linejoin:round;stroke-dasharray:none;stroke-opacity:1;filter:url(#filter1823-6-0-4)"
           d="m 273.76581,81.636741 c 0.34375,1.9375 -0.875,3.75 -0.875,3.75 -0.53192,-1.526525 -0.96481,-2.79737 -2.3125,-4.23437 z"
           id="path2513-9-7-8-7"
           sodipodi:nodetypes="cccc"
           transform="matrix(0.88575495,0.239814,-0.2809172,0.8301563,45.419914,-57.673762)"
           inkscape:label="Tooth4" /><path
           style="display:inline;fill:#c9c9c9;fill-opacity:1;stroke:none;stroke-width:1.01405;stroke-linecap:round;stroke-linejoin:round;stroke-dasharray:none;stroke-opacity:1;filter:url(#filter1823-6-0)"
           d="m 273.76581,81.636741 c 0.34375,1.9375 -0.875,3.75 -0.875,3.75 -0.36058,-1.57602 -0.96481,-2.79737 -2.3125,-4.23437 z"
           id="path2513-9-7-8"
           sodipodi:nodetypes="cccc"
           transform="matrix(0.5875897,0.32502336,-0.32502018,0.57854245,141.2981,-56.13349)"
           inkscape:label="Tooth3" /><path
           style="display:inline;fill:#c9c9c9;fill-opacity:1;stroke:none;stroke-width:1.01405;stroke-linecap:round;stroke-linejoin:round;stroke-dasharray:none;stroke-opacity:1;filter:url(#filter1823-6)"
           d="m 273.76581,81.636741 c 0.34375,1.9375 -0.875,3.75 -0.875,3.75 -0.36058,-1.57602 -0.96481,-2.79737 -2.3125,-4.23437 z"
           id="path2513-9-7"
           sodipodi:nodetypes="cccc"
           transform="matrix(0.5489106,0.12995241,-0.14255444,0.50038608,144.03257,6.3449213)"
           inkscape:label="Tooth2" /><path
           style="display:inline;fill:#c9c9c9;fill-opacity:1;stroke:none;stroke-width:1.01405;stroke-linecap:round;stroke-linejoin:round;stroke-dasharray:none;stroke-opacity:1;filter:url(#filter1823)"
           d="m 273.76581,81.636741 c 0.34375,1.9375 -0.875,3.75 -0.875,3.75 -0.36058,-1.57602 -0.96481,-2.79737 -2.3125,-4.23437 z"
           id="path2513-9"
           sodipodi:nodetypes="cccc"
           transform="matrix(0.65048189,0.16665877,-0.16893294,0.64172513,125.08304,-13.736848)"
           inkscape:label="Tooth1" /><path
           style="display:inline;mix-blend-mode:normal;fill:none;stroke:#604c3b;stroke-width:1.214;stroke-linecap:round;stroke-linejoin:round;stroke-dasharray:none;stroke-opacity:1;filter:url(#filter9994)"
           d="M 303.69672,86.001862 C 290.67417,86.355415 280.48569,81.494056 266.62345,75.748814 252.0983,69.856257 242.74386,68.5157 228.74904,71.90392"
           id="path4026"
           sodipodi:nodetypes="ccc"
           inkscape:label="MouthLine" /></g></g></g></svg>
