<?xml version="1.0" encoding="UTF-8" standalone="no"?>
<!-- Created with Inkscape (http://www.inkscape.org/) -->

<svg
   version="1.1"
   id="svg6278"
   width="20"
   height="20"
   viewBox="0 0 19.999999 20"
   sodipodi:docname="new-tab.svg"
   inkscape:version="1.2.1 (9c6d41e410, 2022-07-14)"
   xmlns:inkscape="http://www.inkscape.org/namespaces/inkscape"
   xmlns:sodipodi="http://sodipodi.sourceforge.net/DTD/sodipodi-0.dtd"
   xmlns="http://www.w3.org/2000/svg"
   xmlns:svg="http://www.w3.org/2000/svg">
  <defs
     id="defs6282" />
  <sodipodi:namedview
     id="namedview6280"
     pagecolor="#505050"
     bordercolor="#ffffff"
     borderopacity="1"
     inkscape:showpageshadow="0"
     inkscape:pageopacity="0"
     inkscape:pagecheckerboard="1"
     inkscape:deskcolor="#505050"
     showgrid="false"
     inkscape:zoom="45.254834"
     inkscape:cx="7.0489707"
     inkscape:cy="6.3087183"
     inkscape:window-width="3840"
     inkscape:window-height="2054"
     inkscape:window-x="7285"
     inkscape:window-y="-11"
     inkscape:window-maximized="1"
     inkscape:current-layer="g6284" />
  <g
     inkscape:groupmode="layer"
     inkscape:label="Image"
     id="g6284"
     transform="matrix(0.03751421,0,0,0.03749846,-0.60478789,-1.0243493)"
     style="fill:#c29f8a;fill-opacity:1">
    <path
       style="fill:#c29f8a;fill-opacity:1;stroke-width:0;stroke-linecap:square"
       d="m 313.06203,68.837979 c 2.73414,2.696075 2.65201,11.210083 2.65201,11.210083 v 14.218329 14.218329 c 0,0 0.10459,8.06815 -3.2467,11.41945 -3.5624,3.56239 -11.86727,2.79888 -11.86727,2.79888 H 285.4861 270.37213 255.25816 240.14419 225.03022 209.91625 194.80228 179.68831 164.57434 149.46037 134.3464 119.23243 104.11846 89.004491 c 0,0 -7.17823,-0.64711 -10.740627,2.91679 -5.512802,5.51511 -4.373343,20.48187 -4.373343,20.48187 v 23.39867 23.39866 23.39867 23.39866 23.39867 23.39866 23.39866 23.39867 23.39866 23.39867 23.39866 23.39867 23.39866 23.39867 c 0,0 -1.660095,13.50836 3.852707,19.02348 5.501924,5.50424 19.48998,4.37518 19.48998,4.37518 h 23.342692 23.34268 23.34269 23.34269 23.34269 23.34268 23.34269 23.34269 23.34269 23.34268 23.34269 23.34269 23.34269 23.34268 c 0,0 12.32202,0.6082 17.82395,-4.89603 7.01629,-7.01925 5.51874,-24.88409 5.51874,-24.88409 V 437.52144 407.74132 377.9612 348.18109 318.40097 288.62085 273.73079 c 0,0 -0.59878,-8.69351 2.91084,-12.20313 3.7735,-3.7735 13.09877,-2.68693 13.09877,-2.68693 h 16.00961 16.00962 c 0,0 8.87745,-0.5268 12.65095,3.2467 3.79329,3.7933 3.35866,12.84688 3.35866,12.84688 v 16.09358 16.09358 16.09358 16.09358 16.09358 16.09358 16.09357 16.09358 16.09358 16.09358 16.09358 16.09358 16.09358 16.09358 c 0,0 0.2061,10.87373 -1.84647,15.82969 -0.99977,2.41397 -3.69532,5.80568 -3.69532,5.80568 l -5.54179,5.54179 -5.54179,5.54179 -5.54179,5.54178 -5.54179,5.54179 -5.54179,5.54179 -5.54179,5.54179 c 0,0 -3.12863,2.66702 -5.54179,3.66671 -3.80565,1.57655 -12.35707,1.87508 -12.35707,1.87508 H 442.36351 430.00644 417.64937 405.2923 392.93523 380.57816 368.22109 355.86402 343.50695 331.14988 318.79281 306.43574 294.07867 281.7216 269.36453 257.00746 244.65039 232.29332 219.93625 207.57918 195.22211 182.86504 170.50797 158.1509 145.79383 133.43676 121.07969 108.72262 96.365554 84.008484 c 0,0 -8.030787,-0.0902 -11.836434,-1.66674 -3.022548,-1.25213 -7.461867,-5.27449 -7.461867,-5.27449 l -6.94123,-6.94123 -6.941231,-6.94123 -6.941231,-6.94123 -6.941231,-6.94123 -6.94123,-6.94123 -6.941231,-6.94123 c 0,0 -3.189934,-3.39682 -4.442178,-6.42038 -3.166318,-7.6451 -2.499053,-25.34695 -2.499053,-25.34695 v -24.82609 -24.8261 -24.82609 -24.8261 -24.82609 -24.8261 -24.8261 -24.82609 -24.8261 -24.82609 -24.8261 -24.82609 -24.8261 -24.82609 c 0,0 -0.250756,-18.53521 2.915562,-26.18032 0.944232,-2.27986 2.31835,-3.87969 2.31835,-3.87969 l 5.233912,-5.233913 5.233912,-5.233912 5.233911,-5.233911 5.233912,-5.233912 5.233912,-5.233912 5.233912,-5.233911 4.400894,-3.150493 c 4.366428,-3.125819 11.571401,-2.092719 16.940593,-2.097039 5.369191,-0.0043 10.738383,-0.0085 16.107575,-0.01244 5.369192,-0.004 10.738387,-0.0078 16.107577,-0.01153 5.36919,-0.0037 10.73838,-0.0073 16.10758,-0.01088 5.36919,-0.0035 10.73838,-0.007 16.10757,-0.01049 5.3692,-0.0035 10.73839,-0.0069 16.10758,-0.01036 5.36919,-0.0035 10.73839,-0.0069 16.10758,-0.0105 5.36919,-0.0036 10.73838,-0.0072 16.10758,-0.0109 5.36919,-0.0037 10.73838,-0.0076 16.10757,-0.01157 5.36919,-0.004 10.73838,-0.0081 16.10758,-0.01249 5.36919,-0.0043 10.73838,-0.0089 16.10757,-0.01368 5.36919,-0.0048 10.73838,-0.0098 16.10757,-0.01513 5.36919,-0.0053 10.73838,-0.01092 16.10757,-0.01685 5.36919,-0.0059 10.73838,-0.01219 16.10757,-0.01883 5.36919,-0.0066 10.73838,-0.01364 16.10757,-0.02107 7.77739,-0.06403 10.18427,-0.241067 13.45555,2.984672 z"
       id="path6705"
       sodipodi:nodetypes="acccscccccccccccccccscccccccccccccccscccccccccccccccsccccccccscccscccccccccccccccscccccccscccccccccccccccccccccccccccccccscccccccscccccccccccccccscccccccsssssssssssssssca" />
    <path
       style="fill:#c29f8a;fill-opacity:1;stroke-width:0;stroke-linecap:square"
       d="m 352.88321,181.81546 -7.96282,7.96282 -7.96283,7.96283 -7.96282,7.96282 -7.96282,7.96282 -7.96283,7.96283 -7.96282,7.96282 -7.96282,7.96282 -7.96283,7.96283 -7.96282,7.96282 -7.96282,7.96282 -7.96282,7.96282 -7.96283,7.96283 -7.96282,7.96282 -7.96282,7.96282 -7.96283,7.96283 c 0,0 -4.63075,4.10415 -4.63075,7.85865 0,4.53971 6.29609,9.73233 6.29609,9.73233 l 9.62816,9.62816 9.62816,9.62816 c 0,0 5.67768,6.91972 10.21549,6.91972 2.86251,0 5.48625,-3.36514 5.48625,-3.36514 l 6.07357,-6.07357 6.07358,-6.07358 6.07358,-6.07358 6.07357,-6.07357 6.07358,-6.07358 6.07358,-6.07358 6.07357,-6.07358 6.07358,-6.07357 6.07358,-6.07358 6.07358,-6.07358 6.07357,-6.07357 6.07358,-6.07358 6.07358,-6.07358 6.07357,-6.07357 6.07358,-6.07358 6.07358,-6.07358 6.07357,-6.07357 6.07358,-6.07358 6.07358,-6.07358 6.07357,-6.07357 6.07358,-6.07358 6.07358,-6.07358 6.07357,-6.07358 6.07358,-6.07357 6.07358,-6.07358 6.07358,-6.07358 6.07357,-6.07357 6.07358,-6.07358 6.07358,-6.07358 6.07357,-6.07357 c 0,0 3.21107,-3.05262 6.07358,-3.05262 4.32675,0 9.18034,6.15938 9.18034,6.15938 l 9.18033,9.18033 9.18034,9.18034 9.18034,9.18034 9.18034,9.18034 9.18033,9.18033 9.18034,9.18034 c 0,0 5.06185,6.68024 9.38859,6.68024 4.11569,0 8.52426,-6.23242 8.52426,-6.23242 0,0 6.01172,-4.92869 7.58712,-8.73252 1.45108,-3.50365 1.1454,-11.37746 1.1454,-11.37746 V 186.60155 175.22409 163.84663 152.46917 141.09171 129.71425 118.33679 106.95933 95.581865 84.204405 72.826944 61.449483 50.072023 38.694562 c 0,0 0.59969,-6.301501 -2.08254,-8.981528 -2.65531,-2.653123 -9.17597,-2.381938 -9.17597,-2.381938 l -11.25851,0.014 -11.2585,0.01399 -11.25851,0.014 -11.25851,0.01399 -11.25851,0.014 -11.25851,0.01399 -11.25851,0.01399 -11.2585,0.014 -11.25851,0.01399 -11.25851,0.014 -11.25851,0.01399 -11.25851,0.014 -11.2585,0.01399 -11.25851,0.01399 c 0,0 -7.24715,-1.178332 -9.90486,1.472383 -2.0201,2.014788 -1.39042,7.102633 -1.39042,7.102633 l -0.0368,8.561026 -0.0368,8.561026 c 0,0 -0.37063,5.496093 0.69212,8.144342 1.17603,2.930514 5.84859,7.232066 5.84859,7.232066 l 6.57747,6.815381 6.57748,6.815382 6.57747,6.815381 6.57748,6.815382 6.57748,6.815382 6.57747,6.81538 c 0,0 4.56057,4.07489 4.49494,7.23207 -0.0822,3.95544 -6.50574,7.77172 -6.50574,7.77172 l -8.58829,8.18841 -8.58828,8.18841 -8.58828,8.18841 -8.58828,8.18842 -8.58829,8.18841 -8.58828,8.18841 z"
       id="path6715"
       sodipodi:nodetypes="ccccccccccccccccscccscccccccccccccccccccccccccccccccscccccccscscccccccccccccccscccccccccccccccscccscccccccscccccccc" />
  </g>
</svg>
