<?xml version="1.0" encoding="UTF-8" standalone="no"?>
<!-- Created with Inkscape (http://www.inkscape.org/) -->

<svg
   width="400"
   height="300"
   viewBox="0 0 105.83333 79.375"
   version="1.1"
   id="svg5997"
   inkscape:version="1.2.1 (9c6d41e410, 2022-07-14)"
   sodipodi:docname="space-invaders.svg"
   inkscape:export-filename="Invaders.png"
   inkscape:export-xdpi="98.230003"
   inkscape:export-ydpi="98.230003"
   xmlns:inkscape="http://www.inkscape.org/namespaces/inkscape"
   xmlns:sodipodi="http://sodipodi.sourceforge.net/DTD/sodipodi-0.dtd"
   xmlns="http://www.w3.org/2000/svg"
   xmlns:svg="http://www.w3.org/2000/svg">
  <sodipodi:namedview
     id="namedview5999"
     pagecolor="#505050"
     bordercolor="#ffffff"
     borderopacity="1"
     inkscape:showpageshadow="0"
     inkscape:pageopacity="0"
     inkscape:pagecheckerboard="true"
     inkscape:deskcolor="#505050"
     inkscape:document-units="px"
     showgrid="true"
     showguides="false"
     inkscape:zoom="4"
     inkscape:cx="217.5"
     inkscape:cy="121.375"
     inkscape:window-width="3840"
     inkscape:window-height="2054"
     inkscape:window-x="7285"
     inkscape:window-y="-11"
     inkscape:window-maximized="1"
     inkscape:current-layer="layer16">
    <inkscape:grid
       type="xygrid"
       id="grid9202"
       originx="0"
       originy="0"
       dotted="false"
       empspacing="7"
       enabled="false" />
  </sodipodi:namedview>
  <defs
     id="defs5994" />
  <g
     inkscape:label="Alien1"
     inkscape:groupmode="layer"
     id="layer1">
    <path
       id="rect6170"
       style="fill:#ddc342;fill-opacity:1;stroke:none;stroke-width:0.0656601;stroke-linecap:square"
       d="M 15.59543 1.8076416 L 15.59543 3.6669596 L 13.736112 3.6669596 L 13.736112 5.5262776 L 11.876277 5.5262776 L 11.876277 7.3861124 L 10.016959 7.3861124 L 10.016959 9.2454304 L 10.016959 11.105265 L 11.876277 11.105265 L 11.876277 12.964583 L 13.736112 12.964583 L 13.736112 11.105265 L 15.59543 11.105265 L 15.59543 12.964583 L 17.455265 12.964583 L 19.314583 12.964583 L 19.314583 11.105265 L 21.173901 11.105265 L 21.173901 12.964583 L 23.033736 12.964583 L 23.033736 11.105265 L 24.893054 11.105265 L 24.893054 9.2454304 L 24.893054 7.3861124 L 23.033736 7.3861124 L 23.033736 5.5262776 L 21.173901 5.5262776 L 21.173901 3.6669596 L 19.314583 3.6669596 L 19.314583 1.8076416 L 17.455265 1.8076416 L 15.59543 1.8076416 z M 23.033736 12.964583 L 23.033736 14.823901 L 24.893054 14.823901 L 24.893054 12.964583 L 23.033736 12.964583 z M 23.033736 14.823901 L 21.173901 14.823901 L 21.173901 16.683736 L 23.033736 16.683736 L 23.033736 14.823901 z M 11.876277 12.964583 L 10.016959 12.964583 L 10.016959 14.823901 L 11.876277 14.823901 L 11.876277 12.964583 z M 11.876277 14.823901 L 11.876277 16.683736 L 13.736112 16.683736 L 13.736112 14.823901 L 11.876277 14.823901 z M 13.736112 7.3861124 L 15.59543 7.3861124 L 15.59543 9.2454304 L 13.736112 9.2454304 L 13.736112 7.3861124 z M 19.314583 7.3861124 L 21.173901 7.3861124 L 21.173901 9.2454304 L 19.314583 9.2454304 L 19.314583 7.3861124 z " />
  </g>
  <g
     inkscape:groupmode="layer"
     id="layer12"
     inkscape:label="Alien12">
    <path
       id="rect6170-66"
       style="fill:#6793af;fill-opacity:1;stroke:none;stroke-width:0.0656601;stroke-linecap:square"
       d="M 38.856542 18.498612 L 38.856542 20.35793 L 36.997224 20.35793 L 36.997224 22.217765 L 35.13739 22.217765 L 35.13739 24.077083 L 33.278072 24.077083 L 33.278072 25.936401 L 33.278072 27.796236 L 35.13739 27.796236 L 35.13739 29.655554 L 36.997224 29.655554 L 36.997224 27.796236 L 38.856542 27.796236 L 38.856542 29.655554 L 40.71586 29.655554 L 42.575695 29.655554 L 42.575695 27.796236 L 44.435013 27.796236 L 44.435013 29.655554 L 46.294848 29.655554 L 46.294848 27.796236 L 48.154166 27.796236 L 48.154166 25.936401 L 48.154166 24.077083 L 46.294848 24.077083 L 46.294848 22.217765 L 44.435013 22.217765 L 44.435013 20.35793 L 42.575695 20.35793 L 42.575695 18.498612 L 40.71586 18.498612 L 38.856542 18.498612 z M 46.294848 29.655554 L 46.294848 31.515389 L 48.154166 31.515389 L 48.154166 29.655554 L 46.294848 29.655554 z M 46.294848 31.515389 L 44.435013 31.515389 L 44.435013 33.374707 L 46.294848 33.374707 L 46.294848 31.515389 z M 35.13739 29.655554 L 33.278072 29.655554 L 33.278072 31.515389 L 35.13739 31.515389 L 35.13739 29.655554 z M 35.13739 31.515389 L 35.13739 33.374707 L 36.997224 33.374707 L 36.997224 31.515389 L 35.13739 31.515389 z M 36.997224 24.077083 L 38.856542 24.077083 L 38.856542 25.936401 L 36.997224 25.936401 L 36.997224 24.077083 z M 42.575695 24.077083 L 44.435013 24.077083 L 44.435013 25.936401 L 42.575695 25.936401 L 42.575695 24.077083 z " />
  </g>
  <g
     inkscape:groupmode="layer"
     id="layer11"
     inkscape:label="Alien11" />
  <g
     inkscape:groupmode="layer"
     id="layer10"
     inkscape:label="Alien10">
    <path
       id="rect6170-1"
       style="fill:#69bf6e;fill-opacity:1;stroke:none;stroke-width:0.0656601;stroke-linecap:square"
       d="M 85.188081 18.520833 L 85.188081 20.380151 L 83.328763 20.380151 L 83.328763 22.239986 L 81.469445 22.239986 L 81.469445 24.099304 L 79.60961 24.099304 L 79.60961 25.959139 L 79.60961 27.818457 L 81.469445 27.818457 L 81.469445 29.677775 L 83.328763 29.677775 L 83.328763 27.818457 L 85.188081 27.818457 L 85.188081 29.677775 L 87.047915 29.677775 L 88.907233 29.677775 L 88.907233 27.818457 L 90.767068 27.818457 L 90.767068 29.677775 L 92.626386 29.677775 L 92.626386 27.818457 L 94.486221 27.818457 L 94.486221 25.959139 L 94.486221 24.099304 L 92.626386 24.099304 L 92.626386 22.239986 L 90.767068 22.239986 L 90.767068 20.380151 L 88.907233 20.380151 L 88.907233 18.520833 L 87.047915 18.520833 L 85.188081 18.520833 z M 92.626386 29.677775 L 92.626386 31.537609 L 94.486221 31.537609 L 94.486221 29.677775 L 92.626386 29.677775 z M 92.626386 31.537609 L 90.767068 31.537609 L 90.767068 33.396927 L 92.626386 33.396927 L 92.626386 31.537609 z M 81.469445 29.677775 L 79.60961 29.677775 L 79.60961 31.537609 L 81.469445 31.537609 L 81.469445 29.677775 z M 81.469445 31.537609 L 81.469445 33.396927 L 83.328763 33.396927 L 83.328763 31.537609 L 81.469445 31.537609 z M 83.328763 24.099304 L 85.188081 24.099304 L 85.188081 25.959139 L 83.328763 25.959139 L 83.328763 24.099304 z M 88.907233 24.099304 L 90.767068 24.099304 L 90.767068 25.959139 L 88.907233 25.959139 L 88.907233 24.099304 z " />
  </g>
  <g
     inkscape:groupmode="layer"
     id="layer8"
     inkscape:label="Alien8" />
  <g
     inkscape:groupmode="layer"
     id="layer7"
     inkscape:label="Alien7">
    <path
       id="rect6170-4-8-2-8"
       style="fill:#ddc342;fill-opacity:1;stroke:none;stroke-width:0.0656601;stroke-linecap:square"
       d="M -60.310013 18.513598 L -60.310013 20.372916 L -58.450695 20.372916 L -56.59086 20.372916 L -54.731542 20.372916 L -54.731542 22.232234 L -52.872224 22.232234 L -52.872224 24.092069 L -52.872224 25.951387 L -52.872224 27.811222 L -54.731542 27.811222 L -56.59086 27.811222 L -56.59086 29.67054 L -54.731542 29.67054 L -54.731542 31.529858 L -56.59086 31.529858 L -56.59086 33.389693 L -58.450695 33.389693 L -60.310013 33.389693 L -60.310013 31.529858 L -58.450695 31.529858 L -58.450695 29.67054 L -60.310013 29.67054 L -62.169848 29.67054 L -62.169848 27.811222 L -64.029166 27.811222 L -65.888484 27.811222 L -65.888484 29.67054 L -67.748318 29.67054 L -69.607636 29.67054 L -69.607636 31.529858 L -67.748318 31.529858 L -67.748318 33.389693 L -69.607636 33.389693 L -71.467471 33.389693 L -71.467471 31.529858 L -73.326789 31.529858 L -73.326789 29.67054 L -71.467471 29.67054 L -71.467471 27.811222 L -73.326789 27.811222 L -75.186107 27.811222 L -75.186107 25.951387 L -75.186107 24.092069 L -75.186107 22.232234 L -73.326789 22.232234 L -73.326789 20.372916 L -71.467471 20.372916 L -69.607636 20.372916 L -67.748318 20.372916 L -67.748318 18.513598 L -65.888484 18.513598 L -64.029166 18.513598 L -62.169848 18.513598 L -60.310013 18.513598 z M -65.888484 29.67054 L -64.029166 29.67054 L -62.169848 29.67054 L -62.169848 31.529858 L -64.029166 31.529858 L -65.888484 31.529858 L -65.888484 29.67054 z M -58.450695 24.092069 L -60.310013 24.092069 L -62.169848 24.092069 L -62.169848 25.951387 L -60.310013 25.951387 L -58.450695 25.951387 L -58.450695 24.092069 z M -65.888484 24.092069 L -67.748318 24.092069 L -69.607636 24.092069 L -69.607636 25.951387 L -67.748318 25.951387 L -65.888484 25.951387 L -65.888484 24.092069 z "
       transform="scale(-1,1)" />
  </g>
  <g
     inkscape:groupmode="layer"
     id="layer4"
     inkscape:label="Alien4">
    <path
       id="rect6170-4-8-725-0-39-9-3"
       style="fill:#e89445;fill-opacity:1;stroke:none;stroke-width:0.0656601;stroke-linecap:square"
       d="M -83.373721 1.8370971 L -83.373721 3.6969319 L -81.513886 3.6969319 L -79.654568 3.6969319 L -77.794733 3.6969319 L -77.794733 5.5562499 L -75.935415 5.5562499 L -75.935415 7.4155679 L -75.935415 9.2754027 L -75.935415 11.134721 L -77.794733 11.134721 L -79.654568 11.134721 L -81.513886 11.134721 L -81.513886 12.994555 L -80.398192 12.994555 L -80.398192 14.853873 L -82.258027 14.853873 L -84.117345 14.853873 L -84.117345 12.994555 L -85.233039 12.994555 L -85.233039 11.134721 L -87.092357 11.134721 L -88.952192 11.134721 L -88.952192 12.994555 L -90.067886 12.994555 L -90.067886 14.853873 L -91.927204 14.853873 L -93.787039 14.853873 L -93.787039 12.994555 L -92.671345 12.994555 L -92.671345 11.134721 L -94.530663 11.134721 L -96.389981 11.134721 L -98.249815 11.134721 L -98.249815 9.2754027 L -98.249815 7.4155679 L -98.249815 5.5562499 L -96.389981 5.5562499 L -96.389981 3.6969319 L -94.530663 3.6969319 L -92.671345 3.6969319 L -90.81151 3.6969319 L -90.81151 1.8370971 L -88.952192 1.8370971 L -87.092357 1.8370971 L -85.233039 1.8370971 L -83.373721 1.8370971 z M -93.787039 14.853873 L -93.787039 16.713191 L -95.646357 16.713191 L -97.505675 16.713191 L -97.505675 14.853873 L -95.646357 14.853873 L -93.787039 14.853873 z M -88.952192 12.994555 L -87.092357 12.994555 L -85.233039 12.994555 L -85.233039 14.853873 L -87.092357 14.853873 L -88.952192 14.853873 L -88.952192 12.994555 z M -80.398192 14.853873 L -78.538874 14.853873 L -76.679039 14.853873 L -76.679039 16.713191 L -78.538874 16.713191 L -80.398192 16.713191 L -80.398192 14.853873 z M -82.258027 7.4155679 L -83.373721 7.4155679 L -85.233039 7.4155679 L -85.233039 9.2754027 L -83.373721 9.2754027 L -82.258027 9.2754027 L -82.258027 7.4155679 z M -88.952192 7.4155679 L -90.81151 7.4155679 L -91.927204 7.4155679 L -91.927204 9.2754027 L -90.81151 9.2754027 L -88.952192 9.2754027 L -88.952192 7.4155679 z "
       transform="scale(-1,1)" />
  </g>
  <g
     inkscape:groupmode="layer"
     id="layer9"
     inkscape:label="Alien9"
     transform="translate(-21.166661,2.6458348)" />
  <g
     inkscape:groupmode="layer"
     id="layer3"
     inkscape:label="Alien3">
    <path
       id="rect6170-4-8-725-0-31"
       style="fill:#e89445;fill-opacity:1;stroke:none;stroke-width:0.0656601;stroke-linecap:square"
       d="M 11.04532 18.490861 L 11.04532 20.350695 L 12.905155 20.350695 L 12.905155 18.490861 L 11.04532 18.490861 z M 12.905155 20.350695 L 12.905155 22.210013 L 11.04532 22.210013 L 11.04532 24.069848 L 9.1860025 24.069848 L 9.1860025 25.929166 L 7.3266845 25.929166 L 7.3266845 27.788484 L 7.3266845 29.648319 L 7.3266845 31.507637 L 9.1860025 31.507637 L 9.1860025 29.648319 L 9.1860025 27.788484 L 11.04532 27.788484 L 11.04532 29.648319 L 11.04532 31.507637 L 12.905155 31.507637 L 12.905155 29.648319 L 14.764473 29.648319 L 16.624308 29.648319 L 18.483626 29.648319 L 20.342944 29.648319 L 22.202779 29.648319 L 22.202779 31.507637 L 24.062097 31.507637 L 24.062097 29.648319 L 24.062097 27.788484 L 25.921932 27.788484 L 25.921932 29.648319 L 25.921932 31.507637 L 27.78125 31.507637 L 27.78125 29.648319 L 27.78125 27.788484 L 27.78125 25.929166 L 25.921932 25.929166 L 25.921932 24.069848 L 24.062097 24.069848 L 24.062097 22.210013 L 22.202779 22.210013 L 22.202779 20.350695 L 20.342944 20.350695 L 20.342944 22.210013 L 18.483626 22.210013 L 16.624308 22.210013 L 14.764473 22.210013 L 14.764473 20.350695 L 12.905155 20.350695 z M 22.202779 20.350695 L 24.062097 20.350695 L 24.062097 18.490861 L 22.202779 18.490861 L 22.202779 20.350695 z M 22.202779 31.507637 L 20.342944 31.507637 L 18.483626 31.507637 L 18.483626 33.367472 L 20.342944 33.367472 L 22.202779 33.367472 L 22.202779 31.507637 z M 12.905155 31.507637 L 12.905155 33.367472 L 14.764473 33.367472 L 16.624308 33.367472 L 16.624308 31.507637 L 14.764473 31.507637 L 12.905155 31.507637 z M 12.905155 24.069848 L 14.764473 24.069848 L 14.764473 25.929166 L 12.905155 25.929166 L 12.905155 24.069848 z M 20.342944 24.069848 L 22.202779 24.069848 L 22.202779 25.929166 L 20.342944 25.929166 L 20.342944 24.069848 z " />
  </g>
  <g
     inkscape:groupmode="layer"
     id="layer6"
     inkscape:label="Alien6">
    <path
       id="rect6170-4-8-725-0"
       style="fill:#69bf6e;fill-opacity:1;stroke:none;stroke-width:0.0656601;stroke-linecap:square"
       d="M 57.429569 1.822111 L 57.429569 3.6819457 L 59.288887 3.6819457 L 59.288887 1.822111 L 57.429569 1.822111 z M 59.288887 3.6819457 L 59.288887 5.5412637 L 57.429569 5.5412637 L 57.429569 7.4010985 L 55.569734 7.4010985 L 55.569734 9.2604165 L 53.710416 9.2604165 L 53.710416 11.119735 L 53.710416 12.979569 L 53.710416 14.838887 L 55.569734 14.838887 L 55.569734 12.979569 L 55.569734 11.119735 L 57.429569 11.119735 L 57.429569 12.979569 L 57.429569 14.838887 L 59.288887 14.838887 L 59.288887 12.979569 L 61.148721 12.979569 L 63.008039 12.979569 L 64.867357 12.979569 L 66.727192 12.979569 L 68.58651 12.979569 L 68.58651 14.838887 L 70.446345 14.838887 L 70.446345 12.979569 L 70.446345 11.119735 L 72.305663 11.119735 L 72.305663 12.979569 L 72.305663 14.838887 L 74.164981 14.838887 L 74.164981 12.979569 L 74.164981 11.119735 L 74.164981 9.2604165 L 72.305663 9.2604165 L 72.305663 7.4010985 L 70.446345 7.4010985 L 70.446345 5.5412637 L 68.58651 5.5412637 L 68.58651 3.6819457 L 66.727192 3.6819457 L 66.727192 5.5412637 L 64.867357 5.5412637 L 63.008039 5.5412637 L 61.148721 5.5412637 L 61.148721 3.6819457 L 59.288887 3.6819457 z M 68.58651 3.6819457 L 70.446345 3.6819457 L 70.446345 1.822111 L 68.58651 1.822111 L 68.58651 3.6819457 z M 68.58651 14.838887 L 66.727192 14.838887 L 64.867357 14.838887 L 64.867357 16.698722 L 66.727192 16.698722 L 68.58651 16.698722 L 68.58651 14.838887 z M 59.288887 14.838887 L 59.288887 16.698722 L 61.148721 16.698722 L 63.008039 16.698722 L 63.008039 14.838887 L 61.148721 14.838887 L 59.288887 14.838887 z M 59.288887 7.4010985 L 61.148721 7.4010985 L 61.148721 9.2604165 L 59.288887 9.2604165 L 59.288887 7.4010985 z M 66.727192 7.4010985 L 68.58651 7.4010985 L 68.58651 9.2604165 L 66.727192 9.2604165 L 66.727192 7.4010985 z " />
  </g>
  <g
     inkscape:groupmode="layer"
     id="layer5"
     inkscape:label="Alien5" />
  <g
     inkscape:groupmode="layer"
     id="layer2"
     inkscape:label="Alien2"
     transform="translate(-0.79375116,-5.0270841)">
    <path
       id="rect6170-4-8-3-9"
       style="fill:#ce4a46;fill-opacity:1;stroke:none;stroke-width:0.0656601;stroke-linecap:square"
       d="M -37.775989 6.8419604 L -37.775989 8.7012784 L -35.916155 8.7012784 L -34.056837 8.7012784 L -32.197519 8.7012784 L -32.197519 10.561113 L -30.337684 10.561113 L -30.337684 12.420431 L -30.337684 14.280266 L -30.337684 16.139584 L -32.197519 16.139584 L -34.056837 16.139584 L -34.056837 17.998902 L -32.197519 17.998902 L -32.197519 19.858737 L -34.056837 19.858737 L -34.056837 21.718055 L -35.916155 21.718055 L -37.775989 21.718055 L -37.775989 19.858737 L -35.916155 19.858737 L -35.916155 17.998902 L -37.775989 17.998902 L -39.635307 17.998902 L -39.635307 16.139584 L -41.495142 16.139584 L -43.35446 16.139584 L -43.35446 17.998902 L -45.213778 17.998902 L -47.073613 17.998902 L -47.073613 19.858737 L -45.213778 19.858737 L -45.213778 21.718055 L -47.073613 21.718055 L -48.932931 21.718055 L -48.932931 19.858737 L -50.792766 19.858737 L -50.792766 17.998902 L -48.932931 17.998902 L -48.932931 16.139584 L -50.792766 16.139584 L -52.652084 16.139584 L -52.652084 14.280266 L -52.652084 12.420431 L -52.652084 10.561113 L -50.792766 10.561113 L -50.792766 8.7012784 L -48.932931 8.7012784 L -47.073613 8.7012784 L -45.213778 8.7012784 L -45.213778 6.8419604 L -43.35446 6.8419604 L -41.495142 6.8419604 L -39.635307 6.8419604 L -37.775989 6.8419604 z M -43.35446 17.998902 L -41.495142 17.998902 L -39.635307 17.998902 L -39.635307 19.858737 L -41.495142 19.858737 L -43.35446 19.858737 L -43.35446 17.998902 z M -35.916155 12.420431 L -37.775989 12.420431 L -39.635307 12.420431 L -39.635307 14.280266 L -37.775989 14.280266 L -35.916155 14.280266 L -35.916155 12.420431 z M -43.35446 12.420431 L -45.213778 12.420431 L -47.073613 12.420431 L -47.073613 14.280266 L -45.213778 14.280266 L -43.35446 14.280266 L -43.35446 12.420431 z "
       transform="scale(-1,1)" />
  </g>
  <g
     inkscape:groupmode="layer"
     id="layer13"
     inkscape:label="Ship">
    <path
       id="rect6170-2-6-1-4-9-4"
       style="fill:#d8d8d8;fill-opacity:1;stroke:none;stroke-width:0.0656601;stroke-linecap:square"
       d="M -51.865567 55.208516 L -51.865567 57.06835 L -51.865567 58.927668 L -51.865567 60.786986 L -50.006249 60.786986 L -50.006249 62.646821 L -50.006249 64.506139 L -50.006249 66.365974 L -50.006249 68.225292 L -50.006249 70.08461 L -51.865567 70.08461 L -51.865567 68.225292 L -53.725402 68.225292 L -53.725402 70.08461 L -55.58472 70.08461 L -55.58472 68.225292 L -55.58472 66.365974 L -55.58472 64.506139 L -55.58472 62.646821 L -55.58472 60.786986 L -53.725402 60.786986 L -53.725402 58.927668 L -53.725402 57.06835 L -53.725402 55.208516 L -51.865567 55.208516 z M -55.58472 70.08461 L -55.58472 71.944445 L -55.58472 73.803763 L -53.725402 73.803763 L -51.865567 73.803763 L -50.006249 73.803763 L -50.006249 71.944445 L -50.006249 70.08461 L -48.146931 70.08461 L -48.146931 68.225292 L -48.146931 66.365974 L -46.287096 66.365974 L -46.287096 68.225292 L -46.287096 70.08461 L -46.287096 71.944445 L -44.427778 71.944445 L -44.427778 73.803763 L -42.567944 73.803763 L -42.567944 71.944445 L -42.567944 70.08461 L -40.708626 70.08461 L -40.708626 71.944445 L -40.708626 73.803763 L -40.708626 75.663597 L -42.567944 75.663597 L -44.427778 75.663597 L -44.427778 77.522915 L -46.287096 77.522915 L -48.146931 77.522915 L -50.006249 77.522915 L -50.006249 75.663597 L -51.865567 75.663597 L -51.865567 77.522915 L -51.865567 79.382233 L -53.725402 79.382233 L -53.725402 77.522915 L -53.725402 75.663597 L -55.58472 75.663597 L -55.58472 77.522915 L -57.444555 77.522915 L -59.303873 77.522915 L -61.163191 77.522915 L -61.163191 75.663597 L -63.023026 75.663597 L -64.882344 75.663597 L -64.882344 73.803763 L -64.882344 71.944445 L -64.882344 70.08461 L -63.023026 70.08461 L -63.023026 71.944445 L -63.023026 73.803763 L -61.163191 73.803763 L -61.163191 71.944445 L -59.303873 71.944445 L -59.303873 70.08461 L -59.303873 68.225292 L -59.303873 66.365974 L -57.444555 66.365974 L -57.444555 68.225292 L -57.444555 70.08461 L -55.58472 70.08461 z "
       transform="scale(-1,1)"
       inkscape:label="ShipBody" />
    <path
       id="rect6170-2-6-1-4-9-4-21"
       style="fill:#98eaea;fill-opacity:1;stroke:none;stroke-width:0.0656601;stroke-linecap:square"
       d="M -51.865567 68.225292 L -51.865567 70.08461 L -50.006249 70.08461 L -50.006249 71.944445 L -50.006249 73.803763 L -51.865567 73.803763 L -53.725402 73.803763 L -55.58472 73.803763 L -55.58472 71.944445 L -55.58472 70.08461 L -53.725402 70.08461 L -53.725402 68.225292 L -51.865567 68.225292 z "
       transform="scale(-1,1)"
       inkscape:label="Windshield" />
    <g
       inkscape:groupmode="layer"
       id="layer15"
       inkscape:label="YellowGunTips">
      <rect
         style="fill:#ddc342;fill-opacity:1;stroke:none;stroke-width:0.0656601;stroke-linecap:square"
         id="rect6170-2-6-1-4-9-4-6"
         width="1.8595212"
         height="1.8595217"
         x="-48.14674"
         y="64.506264"
         transform="scale(-1,1)"
         inkscape:label="YellowTipLeft" />
      <rect
         style="fill:#ddc342;fill-opacity:1;stroke:none;stroke-width:0.0656601;stroke-linecap:square"
         id="rect6170-2-6-1-4-9-4-6-9"
         width="1.8595212"
         height="1.8595217"
         x="57.444347"
         y="64.506264"
         inkscape:label="YellowTipRight" />
    </g>
    <g
       inkscape:groupmode="layer"
       id="layer16"
       inkscape:label="RedGunTips">
      <rect
         style="fill:#ce4a46;fill-opacity:1;stroke:none;stroke-width:0.0656601;stroke-linecap:square"
         id="rect6170-2-6-1-4-9-4-48-4"
         width="1.8595212"
         height="1.8595217"
         x="63.022907"
         y="68.225334"
         inkscape:label="RedTipRight" />
      <rect
         style="fill:#ce4a46;fill-opacity:1;stroke:none;stroke-width:0.0656601;stroke-linecap:square"
         id="rect6170-2-6-1-4-9-4-48"
         width="1.8595212"
         height="1.8595217"
         x="-42.568172"
         y="68.225327"
         transform="scale(-1,1)"
         inkscape:label="RedTipLeft" />
    </g>
    <g
       inkscape:groupmode="layer"
       id="layer17"
       inkscape:label="Thrusters">
      <rect
         style="fill:#ce4a46;fill-opacity:1;stroke:none;stroke-width:0.0656601;stroke-linecap:square"
         id="rect6170-2-6-1-4-9-4-38-2"
         width="1.8595212"
         height="1.8595217"
         x="53.725307"
         y="75.663399" />
      <rect
         style="fill:#ce4a46;fill-opacity:1;stroke:none;stroke-width:0.0656601;stroke-linecap:square"
         id="rect6170-2-6-1-4-9-4-11-7"
         width="1.8595212"
         height="1.8595217"
         x="55.584827"
         y="77.522942" />
      <rect
         style="fill:#ce4a46;fill-opacity:1;stroke:none;stroke-width:0.0656601;stroke-linecap:square"
         id="rect6170-2-6-1-4-9-4-11"
         width="1.8595212"
         height="1.8595217"
         x="-50.006252"
         y="77.522926"
         transform="scale(-1,1)" />
      <rect
         style="fill:#ce4a46;fill-opacity:1;stroke:none;stroke-width:0.0656601;stroke-linecap:square"
         id="rect6170-2-6-1-4-9-4-38"
         width="1.8595212"
         height="1.8595217"
         x="-51.865784"
         y="75.663399"
         transform="scale(-1,1)" />
    </g>
  </g>
</svg>
