<svg version="1.1" viewBox="0.0 0.0 565.0 371.0" fill="none" stroke="none" stroke-linecap="square" stroke-miterlimit="10" width="565" height="371" xmlns:xlink="http://www.w3.org/1999/xlink" xmlns="http://www.w3.org/2000/svg"><path fill="#f3f3f3" d="M0 0L565.0 0L565.0 371.0L0 371.0L0 0Z" fill-rule="nonzero"/><path stroke="#272727" stroke-width="1.0" stroke-linecap="butt" d="M112.5 272.5L493.5 272.5" fill-rule="nonzero"/><path stroke="#666666" stroke-width="1.0" stroke-linecap="butt" d="M112.5 219.5L493.5 219.5" fill-rule="nonzero"/><path stroke="#666666" stroke-width="1.0" stroke-linecap="butt" d="M112.5 167.5L493.5 167.5" fill-rule="nonzero"/><path stroke="#666666" stroke-width="1.0" stroke-linecap="butt" d="M112.5 114.5L493.5 114.5" fill-rule="nonzero"/><path stroke="#666666" stroke-width="1.0" stroke-linecap="butt" d="M112.5 61.5L493.5 61.5" fill-rule="nonzero"/><path stroke="#b3b3b3" stroke-width="1.0" stroke-linecap="butt" d="M112.5 254.5L493.5 254.5" fill-rule="nonzero"/><path stroke="#b3b3b3" stroke-width="1.0" stroke-linecap="butt" d="M112.5 237.5L493.5 237.5" fill-rule="nonzero"/><path stroke="#b3b3b3" stroke-width="1.0" stroke-linecap="butt" d="M112.5 202.5L493.5 202.5" fill-rule="nonzero"/><path stroke="#b3b3b3" stroke-width="1.0" stroke-linecap="butt" d="M112.5 184.5L493.5 184.5" fill-rule="nonzero"/><path stroke="#b3b3b3" stroke-width="1.0" stroke-linecap="butt" d="M112.5 149.5L493.5 149.5" fill-rule="nonzero"/><path stroke="#b3b3b3" stroke-width="1.0" stroke-linecap="butt" d="M112.5 132.5L493.5 132.5" fill-rule="nonzero"/><path stroke="#b3b3b3" stroke-width="1.0" stroke-linecap="butt" d="M112.5 97.5L493.5 97.5" fill-rule="nonzero"/><path stroke="#b3b3b3" stroke-width="1.0" stroke-linecap="butt" d="M112.5 79.5L493.5 79.5" fill-rule="nonzero"/><path stroke="#000000" stroke-width="1.0" stroke-linecap="butt" d="M493.5 272.5L112.5 272.5" fill-rule="nonzero"/><path stroke="#000000" stroke-width="1.0" stroke-linecap="butt" d="M112.5 272.5L112.5 61.5" fill-rule="nonzero"/><clipPath id="id_0"><path d="M112.55 61.916668L493.66 61.916668L493.66 272.45L112.55 272.45L112.55 61.916668Z" clip-rule="nonzero"/></clipPath><path stroke="#000000" stroke-width="2.0" stroke-linecap="butt" stroke-opacity="0.0" clip-path="url(#id_0)" d="M302.0 272.0L212.0 272.0L212.0 104.0C212.0 102.89543 212.89543 102.0 214.0 102.0L300.0 102.0C301.10458 102.0 302.0 102.89543 302.0 104.0Z" fill-rule="nonzero"/><path fill="#ea9999" clip-path="url(#id_0)" d="M302.0 272.0L212.0 272.0L212.0 104.0C212.0 102.89543 212.89543 102.0 214.0 102.0L300.0 102.0C301.10458 102.0 302.0 102.89543 302.0 104.0Z" fill-rule="nonzero"/><path stroke="#000000" stroke-width="2.0" stroke-linecap="butt" stroke-opacity="0.0" clip-path="url(#id_0)" d="M394.0 272.0L304.0 272.0L304.0 243.0C304.0 241.89543 304.89542 241.0 306.0 241.0L392.0 241.0C393.10458 241.0 394.0 241.89543 394.0 243.0Z" fill-rule="nonzero"/><path fill="#b6d7a8" clip-path="url(#id_0)" d="M394.0 272.0L304.0 272.0L304.0 243.0C304.0 241.89543 304.89542 241.0 306.0 241.0L392.0 241.0C393.10458 241.0 394.0 241.89543 394.0 243.0Z" fill-rule="nonzero"/><path stroke="#000000" stroke-width="1.0" stroke-linecap="butt" d="M303.5 278.5L303.5 266.5" fill-rule="nonzero"/><path stroke="#000000" stroke-width="1.0" stroke-linecap="butt" d="M109.5 254.5L115.5 254.5" fill-rule="nonzero"/><path stroke="#000000" stroke-width="1.0" stroke-linecap="butt" d="M109.5 237.5L115.5 237.5" fill-rule="nonzero"/><path stroke="#000000" stroke-width="1.0" stroke-linecap="butt" d="M109.5 202.5L115.5 202.5" fill-rule="nonzero"/><path stroke="#000000" stroke-width="1.0" stroke-linecap="butt" d="M109.5 184.5L115.5 184.5" fill-rule="nonzero"/><path stroke="#000000" stroke-width="1.0" stroke-linecap="butt" d="M109.5 149.5L115.5 149.5" fill-rule="nonzero"/><path stroke="#000000" stroke-width="1.0" stroke-linecap="butt" d="M109.5 132.5L115.5 132.5" fill-rule="nonzero"/><path stroke="#000000" stroke-width="1.0" stroke-linecap="butt" d="M109.5 97.5L115.5 97.5" fill-rule="nonzero"/><path stroke="#000000" stroke-width="1.0" stroke-linecap="butt" d="M109.5 79.5L115.5 79.5" fill-rule="nonzero"/><path stroke="#000000" stroke-width="1.0" stroke-linecap="butt" d="M106.5 272.5L118.5 272.5" fill-rule="nonzero"/><path stroke="#000000" stroke-width="1.0" stroke-linecap="butt" d="M106.5 219.5L118.5 219.5" fill-rule="nonzero"/><path stroke="#000000" stroke-width="1.0" stroke-linecap="butt" d="M106.5 167.5L118.5 167.5" fill-rule="nonzero"/><path stroke="#000000" stroke-width="1.0" stroke-linecap="butt" d="M106.5 114.5L118.5 114.5" fill-rule="nonzero"/><path stroke="#000000" stroke-width="1.0" stroke-linecap="butt" d="M106.5 61.5L118.5 61.5" fill-rule="nonzero"/><path stroke="#ea9999" stroke-width="3.0" stroke-linejoin="round" stroke-linecap="round" d="M245.29688 114.22871L246.20312 114.22871Q246.84375 114.22871 247.15625 113.91621Q247.46875 113.58808 247.46875 113.05683Q247.46875 112.54121 247.15625 112.25996Q246.85938 111.96308 246.3125 111.96308Q245.82812 111.96308 245.5 112.22871Q245.17188 112.49433 245.17188 112.91621L243.48438 112.91621Q243.48438 112.25996 243.84375 111.72871Q244.20312 111.19746 244.84375 110.90058Q245.5 110.58808 246.28125 110.58808Q247.625 110.58808 248.39062 111.24433Q249.17188 111.88496 249.17188 113.02558Q249.17188 113.61933 248.8125 114.11933Q248.45312 114.60371 247.875 114.85371Q248.59375 115.11933 248.9375 115.63496Q249.29688 116.15058 249.29688 116.85371Q249.29688 117.99433 248.46875 118.68183Q247.64062 119.36933 246.28125 119.36933Q245.0 119.36933 244.1875 118.69746Q243.375 118.00996 243.375 116.90058L245.0625 116.90058Q245.0625 117.38496 245.42188 117.69746Q245.79688 117.99433 246.3125 117.99433Q246.92188 117.99433 247.26562 117.68183Q247.60938 117.35371 247.60938 116.82246Q247.60938 115.55683 246.20312 115.55683L245.29688 115.55683L245.29688 114.22871ZM256.42188 119.24433L250.57812 119.24433L250.57812 118.08808L253.34375 115.13496Q253.90625 114.52558 254.17188 114.05683Q254.45312 113.58808 254.45312 113.18183Q254.45312 112.60371 254.15625 112.29121Q253.875 111.96308 253.34375 111.96308Q252.76562 111.96308 252.4375 112.35371Q252.10938 112.74433 252.10938 113.40058L250.40625 113.40058Q250.40625 112.61933 250.78125 111.97871Q251.15625 111.32246 251.82812 110.96308Q252.51562 110.58808 253.375 110.58808Q254.6875 110.58808 255.42188 111.22871Q256.15625 111.85371 256.15625 113.00996Q256.15625 113.65058 255.82812 114.30683Q255.5 114.96308 254.70312 115.83808L252.76562 117.88496L256.42188 117.88496L256.42188 119.24433ZM259.29688 114.22871L260.20312 114.22871Q260.84375 114.22871 261.15625 113.91621Q261.46875 113.58808 261.46875 113.05683Q261.46875 112.54121 261.15625 112.25996Q260.85938 111.96308 260.3125 111.96308Q259.82812 111.96308 259.5 112.22871Q259.17188 112.49433 259.17188 112.91621L257.48438 112.91621Q257.48438 112.25996 257.84375 111.72871Q258.20312 111.19746 258.84375 110.90058Q259.5 110.58808 260.28125 110.58808Q261.625 110.58808 262.39062 111.24433Q263.17188 111.88496 263.17188 113.02558Q263.17188 113.61933 262.8125 114.11933Q262.45312 114.60371 261.875 114.85371Q262.59375 115.11933 262.9375 115.63496Q263.29688 116.15058 263.29688 116.85371Q263.29688 117.99433 262.46875 118.68183Q261.64062 119.36933 260.28125 119.36933Q259.0 119.36933 258.1875 118.69746Q257.375 118.00996 257.375 116.90058L259.0625 116.90058Q259.0625 117.38496 259.42188 117.69746Q259.79688 117.99433 260.3125 117.99433Q260.92188 117.99433 261.26562 117.68183Q261.60938 117.35371 261.60938 116.82246Q261.60938 115.55683 260.20312 115.55683L259.29688 115.55683L259.29688 114.22871ZM270.32812 115.71308Q270.32812 117.47871 269.59375 118.43183Q268.85938 119.36933 267.45312 119.36933Q266.04688 119.36933 265.3125 118.44746Q264.57812 117.52558 264.5625 115.80683L264.5625 114.22871Q264.5625 112.44746 265.29688 111.52558Q266.04688 110.58808 267.4375 110.58808Q268.82812 110.58808 269.5625 111.50996Q270.3125 112.43183 270.32812 114.15058L270.32812 115.71308ZM268.625 113.99433Q268.625 112.93183 268.32812 112.44746Q268.04688 111.96308 267.4375 111.96308Q266.84375 111.96308 266.54688 112.43183Q266.26562 112.88496 266.25 113.86933L266.25 115.93183Q266.25 116.97871 266.53125 117.49433Q266.8125 117.99433 267.45312 117.99433Q268.0625 117.99433 268.34375 117.50996Q268.625 117.02558 268.625 116.02558L268.625 113.99433Z" fill-rule="nonzero"/><path fill="#000000" d="M245.29688 114.22871L246.20312 114.22871Q246.84375 114.22871 247.15625 113.91621Q247.46875 113.58808 247.46875 113.05683Q247.46875 112.54121 247.15625 112.25996Q246.85938 111.96308 246.3125 111.96308Q245.82812 111.96308 245.5 112.22871Q245.17188 112.49433 245.17188 112.91621L243.48438 112.91621Q243.48438 112.25996 243.84375 111.72871Q244.20312 111.19746 244.84375 110.90058Q245.5 110.58808 246.28125 110.58808Q247.625 110.58808 248.39062 111.24433Q249.17188 111.88496 249.17188 113.02558Q249.17188 113.61933 248.8125 114.11933Q248.45312 114.60371 247.875 114.85371Q248.59375 115.11933 248.9375 115.63496Q249.29688 116.15058 249.29688 116.85371Q249.29688 117.99433 248.46875 118.68183Q247.64062 119.36933 246.28125 119.36933Q245.0 119.36933 244.1875 118.69746Q243.375 118.00996 243.375 116.90058L245.0625 116.90058Q245.0625 117.38496 245.42188 117.69746Q245.79688 117.99433 246.3125 117.99433Q246.92188 117.99433 247.26562 117.68183Q247.60938 117.35371 247.60938 116.82246Q247.60938 115.55683 246.20312 115.55683L245.29688 115.55683L245.29688 114.22871ZM256.42188 119.24433L250.57812 119.24433L250.57812 118.08808L253.34375 115.13496Q253.90625 114.52558 254.17188 114.05683Q254.45312 113.58808 254.45312 113.18183Q254.45312 112.60371 254.15625 112.29121Q253.875 111.96308 253.34375 111.96308Q252.76562 111.96308 252.4375 112.35371Q252.10938 112.74433 252.10938 113.40058L250.40625 113.40058Q250.40625 112.61933 250.78125 111.97871Q251.15625 111.32246 251.82812 110.96308Q252.51562 110.58808 253.375 110.58808Q254.6875 110.58808 255.42188 111.22871Q256.15625 111.85371 256.15625 113.00996Q256.15625 113.65058 255.82812 114.30683Q255.5 114.96308 254.70312 115.83808L252.76562 117.88496L256.42188 117.88496L256.42188 119.24433ZM259.29688 114.22871L260.20312 114.22871Q260.84375 114.22871 261.15625 113.91621Q261.46875 113.58808 261.46875 113.05683Q261.46875 112.54121 261.15625 112.25996Q260.85938 111.96308 260.3125 111.96308Q259.82812 111.96308 259.5 112.22871Q259.17188 112.49433 259.17188 112.91621L257.48438 112.91621Q257.48438 112.25996 257.84375 111.72871Q258.20312 111.19746 258.84375 110.90058Q259.5 110.58808 260.28125 110.58808Q261.625 110.58808 262.39062 111.24433Q263.17188 111.88496 263.17188 113.02558Q263.17188 113.61933 262.8125 114.11933Q262.45312 114.60371 261.875 114.85371Q262.59375 115.11933 262.9375 115.63496Q263.29688 116.15058 263.29688 116.85371Q263.29688 117.99433 262.46875 118.68183Q261.64062 119.36933 260.28125 119.36933Q259.0 119.36933 258.1875 118.69746Q257.375 118.00996 257.375 116.90058L259.0625 116.90058Q259.0625 117.38496 259.42188 117.69746Q259.79688 117.99433 260.3125 117.99433Q260.92188 117.99433 261.26562 117.68183Q261.60938 117.35371 261.60938 116.82246Q261.60938 115.55683 260.20312 115.55683L259.29688 115.55683L259.29688 114.22871ZM270.32812 115.71308Q270.32812 117.47871 269.59375 118.43183Q268.85938 119.36933 267.45312 119.36933Q266.04688 119.36933 265.3125 118.44746Q264.57812 117.52558 264.5625 115.80683L264.5625 114.22871Q264.5625 112.44746 265.29688 111.52558Q266.04688 110.58808 267.4375 110.58808Q268.82812 110.58808 269.5625 111.50996Q270.3125 112.43183 270.32812 114.15058L270.32812 115.71308ZM268.625 113.99433Q268.625 112.93183 268.32812 112.44746Q268.04688 111.96308 267.4375 111.96308Q266.84375 111.96308 266.54688 112.43183Q266.26562 112.88496 266.25 113.86933L266.25 115.93183Q266.25 116.97871 266.53125 117.49433Q266.8125 117.99433 267.45312 117.99433Q268.0625 117.99433 268.34375 117.50996Q268.625 117.02558 268.625 116.02558L268.625 113.99433Z" fill-rule="nonzero"/><path stroke="#b6d7a8" stroke-width="3.0" stroke-linejoin="round" stroke-linecap="round" d="M330.82812 253.89894L331.32812 249.57082L336.10938 249.57082L336.10938 250.97707L332.71875 250.97707L332.5 252.82082Q333.10938 252.49269 333.78125 252.49269Q335.0 252.49269 335.6875 253.25832Q336.39062 254.00832 336.39062 255.36769Q336.39062 256.19583 336.03125 256.85208Q335.6875 257.4927 335.03125 257.8677Q334.39062 258.22708 333.5 258.22708Q332.73438 258.22708 332.0625 257.91458Q331.40625 257.58646 331.01562 257.02396Q330.64062 256.46146 330.60938 255.72707L332.29688 255.72707Q332.34375 256.25833 332.65625 256.5552Q332.98438 256.85208 333.5 256.85208Q334.07812 256.85208 334.375 256.44583Q334.6875 256.02396 334.6875 255.27394Q334.6875 254.53957 334.32812 254.16457Q333.98438 253.77394 333.32812 253.77394Q332.71875 253.77394 332.34375 254.08644L332.1875 254.24269L330.82812 253.89894ZM341.54688 254.69582Q340.875 255.33644 340.0 255.33644Q338.85938 255.33644 338.17188 254.57082Q337.5 253.78957 337.5 252.47707Q337.5 251.63332 337.85938 250.93019Q338.23438 250.22707 338.89062 249.83644Q339.54688 249.44582 340.375 249.44582Q341.21875 249.44582 341.875 249.86769Q342.53125 250.28957 342.89062 251.08644Q343.25 251.88332 343.26562 252.89894L343.26562 253.52394Q343.26562 255.66457 342.20312 256.88333Q341.14062 258.10208 339.1875 258.1802L338.78125 258.1802L338.78125 256.77396L339.15625 256.75833Q341.35938 256.66458 341.54688 254.69582ZM340.40625 254.03957Q340.82812 254.03957 341.10938 253.83644Q341.40625 253.61769 341.5625 253.32082L341.5625 252.63332Q341.5625 251.77394 341.23438 251.30519Q340.90625 250.82082 340.35938 250.82082Q339.84375 250.82082 339.51562 251.28957Q339.1875 251.74269 339.1875 252.44582Q339.1875 253.14894 339.5 253.60207Q339.82812 254.03957 340.40625 254.03957ZM348.6875 258.10208L347.0 258.10208L347.0 251.57082L344.98438 252.19582L344.98438 250.82082L348.51562 249.55519L348.6875 249.55519L348.6875 258.10208ZM351.73438 257.27396Q351.73438 256.8677 352.0 256.6177Q352.28125 256.3677 352.6875 256.3677Q353.10938 256.3677 353.375 256.6177Q353.65625 256.8677 353.65625 257.27396Q353.65625 257.66458 353.375 257.91458Q353.10938 258.16458 352.6875 258.16458Q352.28125 258.16458 352.0 257.91458Q351.73438 257.66458 351.73438 257.27396ZM360.375 250.52394L357.07812 258.10208L355.29688 258.10208L358.59375 250.94582L354.35938 250.94582L354.35938 249.57082L360.375 249.57082L360.375 250.52394ZM365.54688 254.69582Q364.875 255.33644 364.0 255.33644Q362.85938 255.33644 362.17188 254.57082Q361.5 253.78957 361.5 252.47707Q361.5 251.63332 361.85938 250.93019Q362.23438 250.22707 362.89062 249.83644Q363.54688 249.44582 364.375 249.44582Q365.21875 249.44582 365.875 249.86769Q366.53125 250.28957 366.89062 251.08644Q367.25 251.88332 367.26562 252.89894L367.26562 253.52394Q367.26562 255.66457 366.20312 256.88333Q365.14062 258.10208 363.1875 258.1802L362.78125 258.1802L362.78125 256.77396L363.15625 256.75833Q365.35938 256.66458 365.54688 254.69582ZM364.40625 254.03957Q364.82812 254.03957 365.10938 253.83644Q365.40625 253.61769 365.5625 253.32082L365.5625 252.63332Q365.5625 251.77394 365.23438 251.30519Q364.90625 250.82082 364.35938 250.82082Q363.84375 250.82082 363.51562 251.28957Q363.1875 251.74269 363.1875 252.44582Q363.1875 253.14894 363.5 253.60207Q363.82812 254.03957 364.40625 254.03957Z" fill-rule="nonzero"/><path fill="#000000" d="M330.82812 253.89896L331.32812 249.57083L336.10938 249.57083L336.10938 250.97708L332.71875 250.97708L332.5 252.82083Q333.10938 252.4927 333.78125 252.4927Q335.0 252.4927 335.6875 253.25833Q336.39062 254.00833 336.39062 255.3677Q336.39062 256.19583 336.03125 256.85208Q335.6875 257.4927 335.03125 257.8677Q334.39062 258.22708 333.5 258.22708Q332.73438 258.22708 332.0625 257.91458Q331.40625 257.58646 331.01562 257.02396Q330.64062 256.46146 330.60938 255.72708L332.29688 255.72708Q332.34375 256.25833 332.65625 256.5552Q332.98438 256.85208 333.5 256.85208Q334.07812 256.85208 334.375 256.44583Q334.6875 256.02396 334.6875 255.27396Q334.6875 254.53958 334.32812 254.16458Q333.98438 253.77396 333.32812 253.77396Q332.71875 253.77396 332.34375 254.08646L332.1875 254.2427L330.82812 253.89896ZM341.54688 254.69583Q340.875 255.33646 340.0 255.33646Q338.85938 255.33646 338.17188 254.57083Q337.5 253.78958 337.5 252.47708Q337.5 251.63333 337.85938 250.9302Q338.23438 250.22708 338.89062 249.83646Q339.54688 249.44583 340.375 249.44583Q341.21875 249.44583 341.875 249.8677Q342.53125 250.28958 342.89062 251.08646Q343.25 251.88333 343.26562 252.89896L343.26562 253.52396Q343.26562 255.66458 342.20312 256.88333Q341.14062 258.10208 339.1875 258.1802L338.78125 258.1802L338.78125 256.77396L339.15625 256.75833Q341.35938 256.66458 341.54688 254.69583ZM340.40625 254.03958Q340.82812 254.03958 341.10938 253.83646Q341.40625 253.6177 341.5625 253.32083L341.5625 252.63333Q341.5625 251.77396 341.23438 251.3052Q340.90625 250.82083 340.35938 250.82083Q339.84375 250.82083 339.51562 251.28958Q339.1875 251.7427 339.1875 252.44583Q339.1875 253.14896 339.5 253.60208Q339.82812 254.03958 340.40625 254.03958ZM348.6875 258.10208L347.0 258.10208L347.0 251.57083L344.98438 252.19583L344.98438 250.82083L348.51562 249.5552L348.6875 249.5552L348.6875 258.10208ZM351.73438 257.27396Q351.73438 256.8677 352.0 256.6177Q352.28125 256.3677 352.6875 256.3677Q353.10938 256.3677 353.375 256.6177Q353.65625 256.8677 353.65625 257.27396Q353.65625 257.66458 353.375 257.91458Q353.10938 258.16458 352.6875 258.16458Q352.28125 258.16458 352.0 257.91458Q351.73438 257.66458 351.73438 257.27396ZM360.375 250.52396L357.07812 258.10208L355.29688 258.10208L358.59375 250.94583L354.35938 250.94583L354.35938 249.57083L360.375 249.57083L360.375 250.52396ZM365.54688 254.69583Q364.875 255.33646 364.0 255.33646Q362.85938 255.33646 362.17188 254.57083Q361.5 253.78958 361.5 252.47708Q361.5 251.63333 361.85938 250.9302Q362.23438 250.22708 362.89062 249.83646Q363.54688 249.44583 364.375 249.44583Q365.21875 249.44583 365.875 249.8677Q366.53125 250.28958 366.89062 251.08646Q367.25 251.88333 367.26562 252.89896L367.26562 253.52396Q367.26562 255.66458 366.20312 256.88333Q365.14062 258.10208 363.1875 258.1802L362.78125 258.1802L362.78125 256.77396L363.15625 256.75833Q365.35938 256.66458 365.54688 254.69583ZM364.40625 254.03958Q364.82812 254.03958 365.10938 253.83646Q365.40625 253.6177 365.5625 253.32083L365.5625 252.63333Q365.5625 251.77396 365.23438 251.3052Q364.90625 250.82083 364.35938 250.82083Q363.84375 250.82083 363.51562 251.28958Q363.1875 251.7427 363.1875 252.44583Q363.1875 253.14896 363.5 253.60208Q363.82812 254.03958 364.40625 254.03958Z" fill-rule="nonzero"/><path fill="#000000" d="M191.105 347.45L191.105 333.1375L193.99562 333.1375L193.99562 339.4969L199.82375 333.1375L203.71437 333.1375L198.32375 338.71564L204.01125 347.45L200.27687 347.45L196.33937 340.73126L193.99562 343.1219L193.99562 347.45L191.105 347.45ZM211.0425 344.15314L213.77687 344.60626Q213.26125 346.10626 212.12062 346.90314Q210.98 347.6844 209.27687 347.6844Q206.55812 347.6844 205.26125 345.91876Q204.24562 344.4969 204.24562 342.34064Q204.24562 339.7625 205.58937 338.3094Q206.93312 336.84064 208.99562 336.84064Q211.30812 336.84064 212.63625 338.3719Q213.98 339.90314 213.93312 343.0594L207.05812 343.0594Q207.08937 344.27814 207.71437 344.96564Q208.355 345.6375 209.2925 345.6375Q209.94875 345.6375 210.38625 345.29376Q210.82375 344.9344 211.0425 344.15314ZM211.19875 341.3719Q211.1675 340.1844 210.57375 339.575Q209.99562 338.95 209.1675 338.95Q208.26125 338.95 207.68312 339.59064Q207.08937 340.2469 207.105 341.3719L211.19875 341.3719ZM214.74562 337.075L217.6675 337.075L220.13625 344.4344L222.55812 337.075L225.40187 337.075L221.74562 347.0594L221.08937 348.8719Q220.73 349.77814 220.40187 350.2469Q220.07375 350.73126 219.65187 351.02814Q219.23 351.325 218.605 351.48126Q217.98 351.65314 217.19875 351.65314Q216.4175 351.65314 215.65187 351.4969L215.40187 349.34064Q216.05812 349.46564 216.57375 349.46564Q217.52687 349.46564 217.98 348.90314Q218.44875 348.35626 218.68312 347.48126L214.74562 337.075ZM226.9175 347.45L226.9175 333.1375L229.6675 333.1375L229.6675 338.29376Q230.93312 336.84064 232.68312 336.84064Q234.57375 336.84064 235.80812 338.21564Q237.05812 339.59064 237.05812 342.15314Q237.05812 344.8094 235.7925 346.2469Q234.52687 347.6844 232.71437 347.6844Q231.82375 347.6844 230.96437 347.2469Q230.105 346.79376 229.48 345.91876L229.48 347.45L226.9175 347.45ZM229.65187 342.04376Q229.65187 343.65314 230.15187 344.41876Q230.87062 345.5125 232.05812 345.5125Q232.96437 345.5125 233.605 344.7469Q234.24562 343.96564 234.24562 342.29376Q234.24562 340.5125 233.58937 339.73126Q232.94875 338.95 231.94875 338.95Q230.96437 338.95 230.30812 339.71564Q229.65187 340.48126 229.65187 342.04376ZM238.40187 342.1219Q238.40187 340.7469 239.07375 339.46564Q239.76125 338.1844 240.99562 337.5125Q242.23 336.84064 243.74562 336.84064Q246.105 336.84064 247.605 338.3719Q249.105 339.90314 249.105 342.23126Q249.105 344.59064 247.58937 346.1375Q246.07375 347.6844 243.76125 347.6844Q242.33937 347.6844 241.0425 347.04376Q239.76125 346.3875 239.07375 345.15314Q238.40187 343.90314 238.40187 342.1219ZM241.21437 342.2625Q241.21437 343.8094 241.94875 344.6375Q242.68312 345.45 243.76125 345.45Q244.83937 345.45 245.55812 344.6375Q246.2925 343.8094 246.2925 342.2469Q246.2925 340.71564 245.55812 339.90314Q244.83937 339.075 243.76125 339.075Q242.68312 339.075 241.94875 339.90314Q241.21437 340.71564 241.21437 342.2625ZM253.08937 340.2469L250.605 339.79376Q251.02687 338.29376 252.0425 337.575Q253.07375 336.84064 255.08937 336.84064Q256.9331 336.84064 257.82373 337.27814Q258.72998 337.71564 259.08936 338.3875Q259.46436 339.04376 259.46436 340.84064L259.4331 344.04376Q259.4331 345.40314 259.5581 346.0594Q259.69873 346.7 260.0581 347.45L257.33936 347.45Q257.22998 347.16876 257.07373 346.6375Q257.01123 346.3875 256.97998 346.3094Q256.27686 346.9969 255.46437 347.34064Q254.6675 347.6844 253.76125 347.6844Q252.1675 347.6844 251.24562 346.825Q250.32375 345.95 250.32375 344.6219Q250.32375 343.73126 250.73 343.04376Q251.15187 342.35626 251.90187 341.9969Q252.6675 341.6219 254.105 341.35626Q256.02686 340.9969 256.76123 340.6844L256.76123 340.40314Q256.76123 339.6219 256.3706 339.29376Q255.98 338.95 254.90187 338.95Q254.1675 338.95 253.74562 339.23126Q253.33937 339.5125 253.08937 340.2469ZM256.76123 342.46564Q256.22998 342.6375 255.08937 342.8875Q253.94875 343.1375 253.605 343.3719Q253.05812 343.7469 253.05812 344.34064Q253.05812 344.90314 253.48 345.325Q253.9175 345.7469 254.58937 345.7469Q255.32375 345.7469 255.99562 345.2625Q256.4956 344.8875 256.65186 344.35626Q256.76123 343.9969 256.76123 343.0125L256.76123 342.46564ZM264.66748 347.45L261.91748 347.45L261.91748 337.075L264.47998 337.075L264.47998 338.5594Q265.1206 337.5125 265.63623 337.1844Q266.16748 336.84064 266.83936 336.84064Q267.77686 336.84064 268.63623 337.35626L267.79248 339.7469Q267.10498 339.3094 266.51123 339.3094Q265.9331 339.3094 265.52686 339.6219Q265.1206 339.9344 264.88623 340.77814Q264.66748 341.60626 264.66748 344.2469L264.66748 347.45ZM279.5581 347.45L277.01123 347.45L277.01123 345.91876Q276.3706 346.8094 275.4956 347.2469Q274.63623 347.6844 273.76123 347.6844Q271.97998 347.6844 270.69873 346.2469Q269.4331 344.8094 269.4331 342.23126Q269.4331 339.59064 270.66748 338.21564Q271.90186 336.84064 273.8081 336.84064Q275.54248 336.84064 276.8081 338.29376L276.8081 333.1375L279.5581 333.1375L279.5581 347.45ZM272.22998 342.04376Q272.22998 343.7 272.6831 344.4344Q273.35498 345.5125 274.54248 345.5125Q275.4956 345.5125 276.15186 344.71564Q276.82373 343.90314 276.82373 342.3094Q276.82373 340.5125 276.16748 339.73126Q275.52686 338.95 274.52686 338.95Q273.54248 338.95 272.88623 339.73126Q272.22998 340.4969 272.22998 342.04376ZM288.02686 347.45L288.02686 333.1375L292.35498 333.1375L294.94873 342.90314L297.51123 333.1375L301.85498 333.1375L301.85498 347.45L299.16748 347.45L299.16748 336.1844L296.32373 347.45L293.54248 347.45L290.71436 336.1844L290.71436 347.45L288.02686 347.45ZM311.04248 344.15314L313.77686 344.60626Q313.26123 346.10626 312.1206 346.90314Q310.97998 347.6844 309.27686 347.6844Q306.5581 347.6844 305.26123 345.91876Q304.2456 344.4969 304.2456 342.34064Q304.2456 339.7625 305.58936 338.3094Q306.9331 336.84064 308.9956 336.84064Q311.3081 336.84064 312.63623 338.3719Q313.97998 339.90314 313.9331 343.0594L307.0581 343.0594Q307.08936 344.27814 307.71436 344.96564Q308.35498 345.6375 309.29248 345.6375Q309.94873 345.6375 310.38623 345.29376Q310.82373 344.9344 311.04248 344.15314ZM311.19873 341.3719Q311.16748 340.1844 310.57373 339.575Q309.9956 338.95 309.16748 338.95Q308.26123 338.95 307.6831 339.59064Q307.08936 340.2469 307.10498 341.3719L311.19873 341.3719ZM320.79248 337.075L320.79248 339.2625L318.91748 339.2625L318.91748 343.45Q318.91748 344.71564 318.96436 344.9344Q319.02686 345.1375 319.21436 345.27814Q319.41748 345.40314 319.6831 345.40314Q320.0581 345.40314 320.79248 345.1375L321.02686 347.27814Q320.0581 347.6844 318.85498 347.6844Q318.10498 347.6844 317.51123 347.4344Q316.91748 347.1844 316.63623 346.79376Q316.3706 346.3875 316.26123 345.71564Q316.16748 345.2469 316.16748 343.79376L316.16748 339.2625L314.90186 339.2625L314.90186 337.075L316.16748 337.075L316.16748 335.0125L318.91748 333.41876L318.91748 337.075L320.79248 337.075ZM325.77686 333.1375L325.77686 338.40314Q327.10498 336.84064 328.94873 336.84064Q329.90186 336.84064 330.65186 337.2Q331.41748 337.54376 331.8081 338.09064Q332.19873 338.6375 332.33936 339.3094Q332.47998 339.96564 332.47998 341.3719L332.47998 347.45L329.72998 347.45L329.72998 341.96564Q329.72998 340.34064 329.57373 339.90314Q329.41748 339.46564 329.01123 339.21564Q328.6206 338.95 328.02686 338.95Q327.35498 338.95 326.8081 339.27814Q326.27686 339.60626 326.02686 340.27814Q325.77686 340.95 325.77686 342.2469L325.77686 347.45L323.02686 347.45L323.02686 333.1375L325.77686 333.1375ZM334.40186 342.1219Q334.40186 340.7469 335.07373 339.46564Q335.76123 338.1844 336.9956 337.5125Q338.22998 336.84064 339.7456 336.84064Q342.10498 336.84064 343.60498 338.3719Q345.10498 339.90314 345.10498 342.23126Q345.10498 344.59064 343.58936 346.1375Q342.07373 347.6844 339.76123 347.6844Q338.33936 347.6844 337.04248 347.04376Q335.76123 346.3875 335.07373 345.15314Q334.40186 343.90314 334.40186 342.1219ZM337.21436 342.2625Q337.21436 343.8094 337.94873 344.6375Q338.6831 345.45 339.76123 345.45Q340.83936 345.45 341.5581 344.6375Q342.29248 343.8094 342.29248 342.2469Q342.29248 340.71564 341.5581 339.90314Q340.83936 339.075 339.76123 339.075Q338.6831 339.075 337.94873 339.90314Q337.21436 340.71564 337.21436 342.2625ZM356.5581 347.45L354.01123 347.45L354.01123 345.91876Q353.3706 346.8094 352.4956 347.2469Q351.63623 347.6844 350.76123 347.6844Q348.97998 347.6844 347.69873 346.2469Q346.4331 344.8094 346.4331 342.23126Q346.4331 339.59064 347.66748 338.21564Q348.90186 336.84064 350.8081 336.84064Q352.54248 336.84064 353.8081 338.29376L353.8081 333.1375L356.5581 333.1375L356.5581 347.45ZM349.22998 342.04376Q349.22998 343.7 349.6831 344.4344Q350.35498 345.5125 351.54248 345.5125Q352.4956 345.5125 353.15186 344.71564Q353.82373 343.90314 353.82373 342.3094Q353.82373 340.5125 353.16748 339.73126Q352.52686 338.95 351.52686 338.95Q350.54248 338.95 349.88623 339.73126Q349.22998 340.4969 349.22998 342.04376ZM365.08936 347.45L365.08936 333.1375L367.90186 333.1375L373.76123 342.7L373.76123 333.1375L376.44873 333.1375L376.44873 347.45L373.54248 347.45L367.77686 338.10626L367.77686 347.45L365.08936 347.45ZM381.08936 340.2469L378.60498 339.79376Q379.02686 338.29376 380.04248 337.575Q381.07373 336.84064 383.08936 336.84064Q384.9331 336.84064 385.82373 337.27814Q386.72998 337.71564 387.08936 338.3875Q387.46436 339.04376 387.46436 340.84064L387.4331 344.04376Q387.4331 345.40314 387.5581 346.0594Q387.69873 346.7 388.0581 347.45L385.33936 347.45Q385.22998 347.16876 385.07373 346.6375Q385.01123 346.3875 384.97998 346.3094Q384.27686 346.9969 383.46436 347.34064Q382.66748 347.6844 381.76123 347.6844Q380.16748 347.6844 379.2456 346.825Q378.32373 345.95 378.32373 344.6219Q378.32373 343.73126 378.72998 343.04376Q379.15186 342.35626 379.90186 341.9969Q380.66748 341.6219 382.10498 341.35626Q384.02686 340.9969 384.76123 340.6844L384.76123 340.40314Q384.76123 339.6219 384.3706 339.29376Q383.97998 338.95 382.90186 338.95Q382.16748 338.95 381.7456 339.23126Q381.33936 339.5125 381.08936 340.2469ZM384.76123 342.46564Q384.22998 342.6375 383.08936 342.8875Q381.94873 343.1375 381.60498 343.3719Q381.0581 343.7469 381.0581 344.34064Q381.0581 344.90314 381.47998 345.325Q381.91748 345.7469 382.58936 345.7469Q383.32373 345.7469 383.9956 345.2625Q384.4956 344.8875 384.65186 344.35626Q384.76123 343.9969 384.76123 343.0125L384.76123 342.46564ZM389.83936 337.075L392.3706 337.075L392.3706 338.4969Q393.72998 336.84064 395.60498 336.84064Q396.58936 336.84064 397.32373 337.2625Q398.0581 337.66876 398.52686 338.4969Q399.21436 337.66876 399.9956 337.2625Q400.79248 336.84064 401.69873 336.84064Q402.83936 336.84064 403.6206 337.3094Q404.41748 337.77814 404.8081 338.66876Q405.08936 339.34064 405.08936 340.825L405.08936 347.45L402.33936 347.45L402.33936 341.52814Q402.33936 339.98126 402.0581 339.52814Q401.6831 338.95 400.88623 338.95Q400.3081 338.95 399.79248 339.3094Q399.29248 339.65314 399.07373 340.325Q398.85498 340.9969 398.85498 342.46564L398.85498 347.45L396.10498 347.45L396.10498 341.7625Q396.10498 340.2469 395.94873 339.8094Q395.8081 339.3719 395.4956 339.16876Q395.19873 338.95 394.66748 338.95Q394.04248 338.95 393.52686 339.29376Q393.02686 339.6219 392.79248 340.27814Q392.57373 340.91876 392.57373 342.40314L392.57373 347.45L389.83936 347.45L389.83936 337.075ZM413.04248 344.15314L415.77686 344.60626Q415.26123 346.10626 414.1206 346.90314Q412.97998 347.6844 411.27686 347.6844Q408.5581 347.6844 407.26123 345.91876Q406.2456 344.4969 406.2456 342.34064Q406.2456 339.7625 407.58936 338.3094Q408.9331 336.84064 410.9956 336.84064Q413.3081 336.84064 414.63623 338.3719Q415.97998 339.90314 415.9331 343.0594L409.0581 343.0594Q409.08936 344.27814 409.71436 344.96564Q410.35498 345.6375 411.29248 345.6375Q411.94873 345.6375 412.38623 345.29376Q412.82373 344.9344 413.04248 344.15314ZM413.19873 341.3719Q413.16748 340.1844 412.57373 339.575Q411.9956 338.95 411.16748 338.95Q410.26123 338.95 409.6831 339.59064Q409.08936 340.2469 409.10498 341.3719L413.19873 341.3719Z" fill-rule="nonzero"/><path fill="#000000" d="M37.55001 216.51146L25.659388 216.51146L25.659388 220.74583L23.237513 220.74583L23.237513 209.37083L25.659388 209.37083L25.659388 213.62083L37.55001 213.62083L37.55001 216.51146ZM25.768763 206.74583L23.237513 206.74583L23.237513 203.99583L25.768763 203.99583L25.768763 206.74583ZM37.55001 206.74583L27.175013 206.74583L27.175013 203.99583L37.55001 203.99583L37.55001 206.74583ZM27.175013 201.94896L27.175013 199.41771L28.596888 199.41771Q26.940638 198.05833 26.940638 196.18333Q26.940638 195.19896 27.362513 194.46458Q27.768763 193.73021 28.596888 193.26146Q27.768763 192.57396 27.362513 191.79271Q26.940638 190.99583 26.940638 190.08958Q26.940638 188.94896 27.409388 188.16771Q27.878138 187.37083 28.768763 186.98021Q29.440638 186.69896 30.925013 186.69896L37.55001 186.69896L37.55001 189.44896L31.628138 189.44896Q30.081263 189.44896 29.628138 189.73021Q29.050013 190.10521 29.050013 190.90208Q29.050013 191.48021 29.409388 191.99583Q29.753138 192.49583 30.425013 192.71458Q31.096888 192.93333 32.565636 192.93333L37.55001 192.93333L37.55001 195.68333L31.862513 195.68333Q30.346888 195.68333 29.909388 195.83958Q29.471888 195.98021 29.268763 196.29271Q29.050013 196.58958 29.050013 197.12083Q29.050013 197.74583 29.393763 198.26146Q29.721888 198.76146 30.378138 198.99583Q31.018763 199.21458 32.503136 199.21458L37.55001 199.21458L37.55001 201.94896L27.175013 201.94896ZM34.253136 178.74583L34.70626 176.01146Q36.20626 176.52708 37.003136 177.66771Q37.784386 178.80833 37.784386 180.51146Q37.784386 183.23021 36.01876 184.52708Q34.596886 185.54271 32.440636 185.54271Q29.862513 185.54271 28.409388 184.19896Q26.940638 182.85521 26.940638 180.79271Q26.940638 178.48021 28.471888 177.15208Q30.003138 175.80833 33.159386 175.85521L33.159386 182.73021Q34.378136 182.69896 35.065636 182.07396Q35.73751 181.43333 35.73751 180.49583Q35.73751 179.83958 35.39376 179.40208Q35.034386 178.96458 34.253136 178.74583ZM31.471888 178.58958Q30.284388 178.62083 29.675013 179.21458Q29.050013 179.79271 29.050013 180.62083Q29.050013 181.52708 29.690638 182.10521Q30.346888 182.69896 31.471888 182.68333L31.471888 178.58958ZM41.753136 163.19896L41.753136 165.07396Q39.503136 166.57396 37.08126 167.35521Q34.64376 168.13646 32.36251 168.13646Q29.534388 168.13646 27.018763 167.16771Q24.831263 166.32396 22.987513 165.04271L22.987513 163.16771Q25.940638 164.51146 28.018763 165.01146Q30.096888 165.51146 32.42501 165.51146Q34.01876 165.51146 35.70626 165.21458Q37.378136 164.91771 38.89376 164.40208Q39.89376 164.05833 41.753136 163.19896ZM37.55001 151.30833L37.55001 154.05833L32.253136 154.05833Q30.581263 154.05833 30.096888 154.23021Q29.596888 154.40208 29.331263 154.80833Q29.050013 155.19896 29.050013 155.76146Q29.050013 156.46458 29.440638 157.04271Q29.831263 157.60521 30.471888 157.82396Q31.112513 158.02708 32.846886 158.02708L37.55001 158.02708L37.55001 160.76146L27.175013 160.76146L27.175013 158.21458L28.706263 158.21458Q26.940638 156.85521 26.940638 154.79271Q26.940638 153.88646 27.268763 153.13646Q27.596888 152.38646 28.112513 152.01146Q28.612513 151.62083 29.268763 151.46458Q29.909388 151.30833 31.096888 151.30833L37.55001 151.30833ZM34.596886 149.71458L34.17501 146.96458Q34.971886 146.77708 35.39376 146.24583Q35.80001 145.71458 35.80001 144.74583Q35.80001 143.68333 35.409386 143.13646Q35.14376 142.77708 34.67501 142.77708Q34.36251 142.77708 34.159386 142.98021Q33.971886 143.18333 33.80001 143.88646Q33.065636 147.21458 32.45626 148.10521Q31.628138 149.33958 30.128138 149.33958Q28.784388 149.33958 27.862513 148.27708Q26.940638 147.19896 26.940638 144.96458Q26.940638 142.83958 27.643763 141.80833Q28.331263 140.76146 29.690638 140.37083L30.159388 142.96458Q29.565638 143.13646 29.237513 143.60521Q28.909388 144.05833 28.909388 144.91771Q28.909388 145.99583 29.221888 146.46458Q29.440638 146.77708 29.768763 146.77708Q30.065638 146.77708 30.268763 146.51146Q30.550013 146.13646 31.050013 143.94896Q31.550013 141.76146 32.26876 140.88646Q33.003136 140.02708 34.30001 140.02708Q35.73751 140.02708 36.76876 141.21458Q37.784386 142.40208 37.784386 144.74583Q37.784386 146.85521 36.92501 148.10521Q36.065636 149.33958 34.596886 149.71458ZM41.753136 138.51146Q40.01876 137.69896 39.08126 137.37083Q38.159386 137.02708 36.95626 136.74583Q35.73751 136.46458 34.659386 136.33958Q33.565636 136.19896 32.42501 136.19896Q30.096888 136.19896 28.018763 136.69896Q25.940638 137.18333 22.987513 138.52708L22.987513 136.66771Q25.081263 135.18333 27.440638 134.37083Q29.800013 133.55833 32.221886 133.55833Q34.253136 133.55833 36.596886 134.19896Q39.20626 134.93333 41.753136 136.62083L41.753136 138.51146Z" fill-rule="nonzero"/><path fill="#000000" d="M94.05 272.21564Q94.05 270.6844 94.3625 269.7625Q94.675 268.825 95.28438 268.325Q95.90938 267.825 96.84688 267.825Q97.53438 267.825 98.05 268.10626Q98.58125 268.3875 98.925 268.91876Q99.26875 269.4344 99.45625 270.1844Q99.64375 270.9344 99.64375 272.21564Q99.64375 273.73126 99.33125 274.65314Q99.03438 275.575 98.40938 276.09064Q97.8 276.59064 96.84688 276.59064Q95.6125 276.59064 94.89375 275.7Q94.05 274.6375 94.05 272.21564ZM95.12813 272.21564Q95.12813 274.325 95.62813 275.02814Q96.12813 275.73126 96.84688 275.73126Q97.58125 275.73126 98.06563 275.02814Q98.56563 274.325 98.56563 272.21564Q98.56563 270.09064 98.06563 269.40314Q97.58125 268.7 96.83125 268.7Q96.1125 268.7 95.675 269.3094Q95.12813 270.09064 95.12813 272.21564Z" fill-rule="nonzero"/><path fill="#000000" d="M77.01875 223.81667L75.97188 223.81667L75.97188 217.09792Q75.58125 217.45729 74.95625 217.83229Q74.34688 218.19167 73.8625 218.36354L73.8625 217.34792Q74.7375 216.92604 75.39375 216.34792Q76.06563 215.75417 76.34688 215.19167L77.01875 215.19167L77.01875 223.81667ZM80.05 219.58229Q80.05 218.05104 80.3625 217.12917Q80.675 216.19167 81.28438 215.69167Q81.90938 215.19167 82.84688 215.19167Q83.53438 215.19167 84.05 215.47292Q84.58125 215.75417 84.925 216.28542Q85.26875 216.80104 85.45625 217.55104Q85.64375 218.30104 85.64375 219.58229Q85.64375 221.09792 85.33125 222.01979Q85.03438 222.94167 84.40938 223.45729Q83.8 223.95729 82.84688 223.95729Q81.6125 223.95729 80.89375 223.06667Q80.05 222.00417 80.05 219.58229ZM81.12813 219.58229Q81.12813 221.69167 81.62813 222.39479Q82.12813 223.09792 82.84688 223.09792Q83.58125 223.09792 84.06563 222.39479Q84.56563 221.69167 84.56563 219.58229Q84.56563 217.45729 84.06563 216.76979Q83.58125 216.06667 82.83125 216.06667Q82.1125 216.06667 81.675 216.67604Q81.12813 217.45729 81.12813 219.58229ZM87.05 219.58229Q87.05 218.05104 87.3625 217.12917Q87.675 216.19167 88.28438 215.69167Q88.90938 215.19167 89.84688 215.19167Q90.53438 215.19167 91.05 215.47292Q91.58125 215.75417 91.925 216.28542Q92.26875 216.80104 92.45625 217.55104Q92.64375 218.30104 92.64375 219.58229Q92.64375 221.09792 92.33125 222.01979Q92.03438 222.94167 91.40938 223.45729Q90.8 223.95729 89.84688 223.95729Q88.6125 223.95729 87.89375 223.06667Q87.05 222.00417 87.05 219.58229ZM88.12813 219.58229Q88.12813 221.69167 88.62813 222.39479Q89.12813 223.09792 89.84688 223.09792Q90.58125 223.09792 91.06563 222.39479Q91.56563 221.69167 91.56563 219.58229Q91.56563 217.45729 91.06563 216.76979Q90.58125 216.06667 89.83125 216.06667Q89.1125 216.06667 88.675 216.67604Q88.12813 217.45729 88.12813 219.58229ZM94.05 219.58229Q94.05 218.05104 94.3625 217.12917Q94.675 216.19167 95.28438 215.69167Q95.90938 215.19167 96.84688 215.19167Q97.53438 215.19167 98.05 215.47292Q98.58125 215.75417 98.925 216.28542Q99.26875 216.80104 99.45625 217.55104Q99.64375 218.30104 99.64375 219.58229Q99.64375 221.09792 99.33125 222.01979Q99.03438 222.94167 98.40938 223.45729Q97.8 223.95729 96.84688 223.95729Q95.6125 223.95729 94.89375 223.06667Q94.05 222.00417 94.05 219.58229ZM95.12813 219.58229Q95.12813 221.69167 95.62813 222.39479Q96.12813 223.09792 96.84688 223.09792Q97.58125 223.09792 98.06563 222.39479Q98.56563 221.69167 98.56563 219.58229Q98.56563 217.45729 98.06563 216.76979Q97.58125 216.06667 96.83125 216.06667Q96.1125 216.06667 95.675 216.67604Q95.12813 217.45729 95.12813 219.58229Z" fill-rule="nonzero"/><path fill="#000000" d="M78.59688 170.16771L78.59688 171.18333L72.90938 171.18333Q72.90938 170.80833 73.03438 170.44896Q73.25313 169.87083 73.72188 169.30833Q74.20625 168.74583 75.1125 168.01146Q76.51875 166.85521 77.00313 166.18333Q77.50313 165.51146 77.50313 164.91771Q77.50313 164.29271 77.05 163.87083Q76.59688 163.43333 75.87813 163.43333Q75.1125 163.43333 74.65938 163.88646Q74.20625 164.33958 74.19063 165.15208L73.1125 165.04271Q73.22188 163.82396 73.94063 163.19896Q74.675 162.55833 75.90938 162.55833Q77.14375 162.55833 77.8625 163.24583Q78.58125 163.93333 78.58125 164.94896Q78.58125 165.46458 78.3625 165.96458Q78.15938 166.44896 77.65938 167.01146Q77.175 167.55833 76.05 168.51146Q75.09688 169.30833 74.81563 169.60521Q74.55 169.88646 74.37813 170.16771L78.59688 170.16771ZM80.05 166.94896Q80.05 165.41771 80.3625 164.49583Q80.675 163.55833 81.28438 163.05833Q81.90938 162.55833 82.84688 162.55833Q83.53438 162.55833 84.05 162.83958Q84.58125 163.12083 84.925 163.65208Q85.26875 164.16771 85.45625 164.91771Q85.64375 165.66771 85.64375 166.94896Q85.64375 168.46458 85.33125 169.38646Q85.03438 170.30833 84.40938 170.82396Q83.8 171.32396 82.84688 171.32396Q81.6125 171.32396 80.89375 170.43333Q80.05 169.37083 80.05 166.94896ZM81.12813 166.94896Q81.12813 169.05833 81.62813 169.76146Q82.12813 170.46458 82.84688 170.46458Q83.58125 170.46458 84.06563 169.76146Q84.56563 169.05833 84.56563 166.94896Q84.56563 164.82396 84.06563 164.13646Q83.58125 163.43333 82.83125 163.43333Q82.1125 163.43333 81.675 164.04271Q81.12813 164.82396 81.12813 166.94896ZM87.05 166.94896Q87.05 165.41771 87.3625 164.49583Q87.675 163.55833 88.28438 163.05833Q88.90938 162.55833 89.84688 162.55833Q90.53438 162.55833 91.05 162.83958Q91.58125 163.12083 91.925 163.65208Q92.26875 164.16771 92.45625 164.91771Q92.64375 165.66771 92.64375 166.94896Q92.64375 168.46458 92.33125 169.38646Q92.03438 170.30833 91.40938 170.82396Q90.8 171.32396 89.84688 171.32396Q88.6125 171.32396 87.89375 170.43333Q87.05 169.37083 87.05 166.94896ZM88.12813 166.94896Q88.12813 169.05833 88.62813 169.76146Q89.12813 170.46458 89.84688 170.46458Q90.58125 170.46458 91.06563 169.76146Q91.56563 169.05833 91.56563 166.94896Q91.56563 164.82396 91.06563 164.13646Q90.58125 163.43333 89.83125 163.43333Q89.1125 163.43333 88.675 164.04271Q88.12813 164.82396 88.12813 166.94896ZM94.05 166.94896Q94.05 165.41771 94.3625 164.49583Q94.675 163.55833 95.28438 163.05833Q95.90938 162.55833 96.84688 162.55833Q97.53438 162.55833 98.05 162.83958Q98.58125 163.12083 98.925 163.65208Q99.26875 164.16771 99.45625 164.91771Q99.64375 165.66771 99.64375 166.94896Q99.64375 168.46458 99.33125 169.38646Q99.03438 170.30833 98.40938 170.82396Q97.8 171.32396 96.84688 171.32396Q95.6125 171.32396 94.89375 170.43333Q94.05 169.37083 94.05 166.94896ZM95.12813 166.94896Q95.12813 169.05833 95.62813 169.76146Q96.12813 170.46458 96.84688 170.46458Q97.58125 170.46458 98.06563 169.76146Q98.56563 169.05833 98.56563 166.94896Q98.56563 164.82396 98.06563 164.13646Q97.58125 163.43333 96.83125 163.43333Q96.1125 163.43333 95.675 164.04271Q95.12813 164.82396 95.12813 166.94896Z" fill-rule="nonzero"/><path fill="#000000" d="M73.05 116.28438L74.1125 116.14375Q74.28438 117.03438 74.72188 117.44063Q75.15938 117.83125 75.78438 117.83125Q76.53438 117.83125 77.05 117.31563Q77.56563 116.8 77.56563 116.03438Q77.56563 115.31563 77.08125 114.84688Q76.6125 114.3625 75.87813 114.3625Q75.58125 114.3625 75.12813 114.4875L75.25313 113.55Q75.3625 113.56563 75.425 113.56563Q76.09688 113.56563 76.62813 113.22188Q77.175 112.8625 77.175 112.12813Q77.175 111.55 76.78438 111.175Q76.39375 110.78438 75.76875 110.78438Q75.15938 110.78438 74.7375 111.175Q74.33125 111.56563 74.22188 112.33125L73.15938 112.14375Q73.34688 111.09688 74.03438 110.51875Q74.72188 109.925 75.7375 109.925Q76.44063 109.925 77.03438 110.2375Q77.62813 110.53438 77.94063 111.05Q78.25313 111.56563 78.25313 112.15938Q78.25313 112.70625 77.95625 113.175Q77.65938 113.62813 77.08125 113.89375Q77.83125 114.06563 78.25313 114.62813Q78.675 115.175 78.675 116.01875Q78.675 117.14375 77.84688 117.925Q77.03438 118.70625 75.78438 118.70625Q74.65938 118.70625 73.90938 118.03438Q73.15938 117.34688 73.05 116.28438ZM80.05 114.31563Q80.05 112.78438 80.3625 111.8625Q80.675 110.925 81.28438 110.425Q81.90938 109.925 82.84688 109.925Q83.53438 109.925 84.05 110.20625Q84.58125 110.4875 84.925 111.01875Q85.26875 111.53438 85.45625 112.28438Q85.64375 113.03438 85.64375 114.31563Q85.64375 115.83125 85.33125 116.75313Q85.03438 117.675 84.40938 118.19063Q83.8 118.69063 82.84688 118.69063Q81.6125 118.69063 80.89375 117.8Q80.05 116.7375 80.05 114.31563ZM81.12813 114.31563Q81.12813 116.425 81.62813 117.12813Q82.12813 117.83125 82.84688 117.83125Q83.58125 117.83125 84.06563 117.12813Q84.56563 116.425 84.56563 114.31563Q84.56563 112.19063 84.06563 111.50313Q83.58125 110.8 82.83125 110.8Q82.1125 110.8 81.675 111.40938Q81.12813 112.19063 81.12813 114.31563ZM87.05 114.31563Q87.05 112.78438 87.3625 111.8625Q87.675 110.925 88.28438 110.425Q88.90938 109.925 89.84688 109.925Q90.53438 109.925 91.05 110.20625Q91.58125 110.4875 91.925 111.01875Q92.26875 111.53438 92.45625 112.28438Q92.64375 113.03438 92.64375 114.31563Q92.64375 115.83125 92.33125 116.75313Q92.03438 117.675 91.40938 118.19063Q90.8 118.69063 89.84688 118.69063Q88.6125 118.69063 87.89375 117.8Q87.05 116.7375 87.05 114.31563ZM88.12813 114.31563Q88.12813 116.425 88.62813 117.12813Q89.12813 117.83125 89.84688 117.83125Q90.58125 117.83125 91.06563 117.12813Q91.56563 116.425 91.56563 114.31563Q91.56563 112.19063 91.06563 111.50313Q90.58125 110.8 89.83125 110.8Q89.1125 110.8 88.675 111.40938Q88.12813 112.19063 88.12813 114.31563ZM94.05 114.31563Q94.05 112.78438 94.3625 111.8625Q94.675 110.925 95.28438 110.425Q95.90938 109.925 96.84688 109.925Q97.53438 109.925 98.05 110.20625Q98.58125 110.4875 98.925 111.01875Q99.26875 111.53438 99.45625 112.28438Q99.64375 113.03438 99.64375 114.31563Q99.64375 115.83125 99.33125 116.75313Q99.03438 117.675 98.40938 118.19063Q97.8 118.69063 96.84688 118.69063Q95.6125 118.69063 94.89375 117.8Q94.05 116.7375 94.05 114.31563ZM95.12813 114.31563Q95.12813 116.425 95.62813 117.12813Q96.12813 117.83125 96.84688 117.83125Q97.58125 117.83125 98.06563 117.12813Q98.56563 116.425 98.56563 114.31563Q98.56563 112.19063 98.06563 111.50313Q97.58125 110.8 96.83125 110.8Q96.1125 110.8 95.675 111.40938Q95.12813 112.19063 95.12813 114.31563Z" fill-rule="nonzero"/><path fill="#000000" d="M76.425 65.916664L76.425 63.854164L72.70625 63.854164L72.70625 62.885414L76.62813 57.322914L77.4875 57.322914L77.4875 62.885414L78.64375 62.885414L78.64375 63.854164L77.4875 63.854164L77.4875 65.916664L76.425 65.916664ZM76.425 62.885414L76.425 59.02604L73.7375 62.885414L76.425 62.885414ZM80.05 61.68229Q80.05 60.15104 80.3625 59.229164Q80.675 58.291664 81.28438 57.791664Q81.90938 57.291664 82.84688 57.291664Q83.53438 57.291664 84.05 57.572914Q84.58125 57.854164 84.925 58.385414Q85.26875 58.90104 85.45625 59.65104Q85.64375 60.40104 85.64375 61.68229Q85.64375 63.197914 85.33125 64.11979Q85.03438 65.041664 84.40938 65.55729Q83.8 66.05729 82.84688 66.05729Q81.6125 66.05729 80.89375 65.166664Q80.05 64.104164 80.05 61.68229ZM81.12813 61.68229Q81.12813 63.791664 81.62813 64.49479Q82.12813 65.197914 82.84688 65.197914Q83.58125 65.197914 84.06563 64.49479Q84.56563 63.791664 84.56563 61.68229Q84.56563 59.55729 84.06563 58.86979Q83.58125 58.166664 82.83125 58.166664Q82.1125 58.166664 81.675 58.77604Q81.12813 59.55729 81.12813 61.68229ZM87.05 61.68229Q87.05 60.15104 87.3625 59.229164Q87.675 58.291664 88.28438 57.791664Q88.90938 57.291664 89.84688 57.291664Q90.53438 57.291664 91.05 57.572914Q91.58125 57.854164 91.925 58.385414Q92.26875 58.90104 92.45625 59.65104Q92.64375 60.40104 92.64375 61.68229Q92.64375 63.197914 92.33125 64.11979Q92.03438 65.041664 91.40938 65.55729Q90.8 66.05729 89.84688 66.05729Q88.6125 66.05729 87.89375 65.166664Q87.05 64.104164 87.05 61.68229ZM88.12813 61.68229Q88.12813 63.791664 88.62813 64.49479Q89.12813 65.197914 89.84688 65.197914Q90.58125 65.197914 91.06563 64.49479Q91.56563 63.791664 91.56563 61.68229Q91.56563 59.55729 91.06563 58.86979Q90.58125 58.166664 89.83125 58.166664Q89.1125 58.166664 88.675 58.77604Q88.12813 59.55729 88.12813 61.68229ZM94.05 61.68229Q94.05 60.15104 94.3625 59.229164Q94.675 58.291664 95.28438 57.791664Q95.90938 57.291664 96.84688 57.291664Q97.53438 57.291664 98.05 57.572914Q98.58125 57.854164 98.925 58.385414Q99.26875 58.90104 99.45625 59.65104Q99.64375 60.40104 99.64375 61.68229Q99.64375 63.197914 99.33125 64.11979Q99.03438 65.041664 98.40938 65.55729Q97.8 66.05729 96.84688 66.05729Q95.6125 66.05729 94.89375 65.166664Q94.05 64.104164 94.05 61.68229ZM95.12813 61.68229Q95.12813 63.791664 95.62813 64.49479Q96.12813 65.197914 96.84688 65.197914Q97.58125 65.197914 98.06563 64.49479Q98.56563 63.791664 98.56563 61.68229Q98.56563 59.55729 98.06563 58.86979Q97.58125 58.166664 96.83125 58.166664Q96.1125 58.166664 95.675 58.77604Q95.12813 59.55729 95.12813 61.68229Z" fill-rule="nonzero"/><path fill="#000000" d="M284.605 293.2L285.7144 293.10626Q285.8394 293.91876 286.2769 294.325Q286.73 294.73126 287.37064 294.73126Q288.12064 294.73126 288.6519 294.15314Q289.18314 293.575 289.18314 292.6375Q289.18314 291.73126 288.6675 291.21564Q288.1675 290.6844 287.3394 290.6844Q286.8394 290.6844 286.4175 290.91876Q286.01126 291.15314 285.7769 291.5125L284.7925 291.3875L285.62064 286.98126L289.9019 286.98126L289.9019 287.98126L286.4644 287.98126L286.01126 290.29376Q286.7769 289.7469 287.62064 289.7469Q288.74564 289.7469 289.51126 290.52814Q290.2925 291.3094 290.2925 292.54376Q290.2925 293.7 289.62064 294.5594Q288.7925 295.59064 287.37064 295.59064Q286.19876 295.59064 285.44876 294.9344Q284.7144 294.27814 284.605 293.2ZM291.76126 293.46564L292.7769 293.3719Q292.9019 294.09064 293.26126 294.41876Q293.63626 294.73126 294.19876 294.73126Q294.68314 294.73126 295.0425 294.5125Q295.4175 294.27814 295.6519 293.91876Q295.88626 293.54376 296.0425 292.91876Q296.19876 292.27814 296.19876 291.6219Q296.19876 291.54376 296.19876 291.40314Q295.88626 291.90314 295.3394 292.23126Q294.7925 292.54376 294.1519 292.54376Q293.07376 292.54376 292.3394 291.77814Q291.605 290.9969 291.605 289.73126Q291.605 288.41876 292.37064 287.6219Q293.1519 286.825 294.30814 286.825Q295.13626 286.825 295.82376 287.27814Q296.5269 287.73126 296.88626 288.575Q297.24564 289.40314 297.24564 290.98126Q297.24564 292.6219 296.88626 293.60626Q296.5425 294.575 295.82376 295.09064Q295.12064 295.59064 294.18314 295.59064Q293.1675 295.59064 292.5269 295.04376Q291.88626 294.48126 291.76126 293.46564ZM296.07376 289.66876Q296.07376 288.7625 295.5894 288.23126Q295.12064 287.7 294.43314 287.7Q293.73 287.7 293.19876 288.27814Q292.68314 288.84064 292.68314 289.7625Q292.68314 290.575 293.18314 291.09064Q293.68314 291.60626 294.4019 291.60626Q295.13626 291.60626 295.605 291.09064Q296.07376 290.575 296.07376 289.66876ZM302.57376 295.45L301.5269 295.45L301.5269 288.73126Q301.13626 289.09064 300.51126 289.46564Q299.9019 289.825 299.4175 289.9969L299.4175 288.98126Q300.2925 288.5594 300.94876 287.98126Q301.62064 287.3875 301.9019 286.825L302.57376 286.825L302.57376 295.45ZM306.19876 295.45L306.19876 294.2469L307.4019 294.2469L307.4019 295.45L306.19876 295.45ZM308.6675 287.98126L308.6675 286.96564L314.23 286.96564L314.23 287.79376Q313.4175 288.66876 312.605 290.1219Q311.80814 291.5594 311.37064 293.09064Q311.0425 294.16876 310.9644 295.45L309.87064 295.45Q309.88626 294.4344 310.26126 292.9969Q310.6519 291.5594 311.355 290.23126Q312.07376 288.90314 312.88626 287.98126L308.6675 287.98126ZM315.76126 293.46564L316.7769 293.3719Q316.9019 294.09064 317.26126 294.41876Q317.63626 294.73126 318.19876 294.73126Q318.68314 294.73126 319.0425 294.5125Q319.4175 294.27814 319.6519 293.91876Q319.88626 293.54376 320.0425 292.91876Q320.19876 292.27814 320.19876 291.6219Q320.19876 291.54376 320.19876 291.40314Q319.88626 291.90314 319.3394 292.23126Q318.7925 292.54376 318.1519 292.54376Q317.07376 292.54376 316.3394 291.77814Q315.605 290.9969 315.605 289.73126Q315.605 288.41876 316.37064 287.6219Q317.1519 286.825 318.30814 286.825Q319.13626 286.825 319.82376 287.27814Q320.5269 287.73126 320.88626 288.575Q321.24564 289.40314 321.24564 290.98126Q321.24564 292.6219 320.88626 293.60626Q320.5425 294.575 319.82376 295.09064Q319.12064 295.59064 318.18314 295.59064Q317.1675 295.59064 316.5269 295.04376Q315.88626 294.48126 315.76126 293.46564ZM320.07376 289.66876Q320.07376 288.7625 319.5894 288.23126Q319.12064 287.7 318.43314 287.7Q317.73 287.7 317.19876 288.27814Q316.68314 288.84064 316.68314 289.7625Q316.68314 290.575 317.18314 291.09064Q317.68314 291.60626 318.4019 291.60626Q319.13626 291.60626 319.605 291.09064Q320.07376 290.575 320.07376 289.66876Z" fill-rule="nonzero"/><path fill="#ea9999" d="M513.49554 56.916668C513.49554 56.364384 513.9433 55.916668 514.49554 55.916668L524.49554 55.916668C525.04785 55.916668 525.49554 56.364384 525.49554 56.916668L525.49554 66.916664C525.49554 67.46895 525.04785 67.916664 524.49554 67.916664L514.49554 67.916664C513.9433 67.916664 513.49554 67.46895 513.49554 66.916664Z" fill-rule="nonzero"/><path fill="#b6d7a8" d="M513.49554 80.916664C513.49554 80.36438 513.9433 79.916664 514.49554 79.916664L524.49554 79.916664C525.04785 79.916664 525.49554 80.36438 525.49554 80.916664L525.49554 90.916664C525.49554 91.46895 525.04785 91.916664 524.49554 91.916664L514.49554 91.916664C513.9433 91.916664 513.49554 91.46895 513.49554 90.916664Z" fill-rule="nonzero"/><path fill="#757575" d="M137.5 37.55L137.5 23.2375L140.39062 23.2375L140.39062 29.596874L146.21875 23.2375L150.10938 23.2375L144.71875 28.815624L150.40625 37.55L146.67188 37.55L142.73438 30.83125L140.39062 33.221874L140.39062 37.55L137.5 37.55ZM157.4375 34.253124L160.17188 34.70625Q159.65625 36.20625 158.51562 37.003124Q157.375 37.784374 155.67188 37.784374Q152.95312 37.784374 151.65625 36.01875Q150.64062 34.596874 150.64062 32.440624Q150.64062 29.8625 151.98438 28.409374Q153.32812 26.940624 155.39062 26.940624Q157.70312 26.940624 159.03125 28.471874Q160.375 30.003124 160.32812 33.159374L153.45312 33.159374Q153.48438 34.378124 154.10938 35.065624Q154.75 35.7375 155.6875 35.7375Q156.34375 35.7375 156.78125 35.39375Q157.21875 35.034374 157.4375 34.253124ZM157.59375 31.471874Q157.5625 30.284374 156.96875 29.675Q156.39062 29.05 155.5625 29.05Q154.65625 29.05 154.07812 29.690624Q153.48438 30.346874 153.5 31.471874L157.59375 31.471874ZM161.14062 27.175L164.0625 27.175L166.53125 34.534374L168.95312 27.175L171.79688 27.175L168.14062 37.159374L167.48438 38.971874Q167.125 39.878124 166.79688 40.346874Q166.46875 40.83125 166.04688 41.128124Q165.625 41.425 165.0 41.58125Q164.375 41.753124 163.59375 41.753124Q162.8125 41.753124 162.04688 41.596874L161.79688 39.440624Q162.45312 39.565624 162.96875 39.565624Q163.92188 39.565624 164.375 39.003124Q164.84375 38.45625 165.07812 37.58125L161.14062 27.175ZM173.3125 37.55L173.3125 23.2375L176.0625 23.2375L176.0625 28.39375Q177.32812 26.940624 179.07812 26.940624Q180.96875 26.940624 182.20312 28.315624Q183.45312 29.690624 183.45312 32.253124Q183.45312 34.909374 182.1875 36.346874Q180.92188 37.784374 179.10938 37.784374Q178.21875 37.784374 177.35938 37.346874Q176.5 36.89375 175.875 36.01875L175.875 37.55L173.3125 37.55ZM176.04688 32.14375Q176.04688 33.753124 176.54688 34.51875Q177.26562 35.6125 178.45312 35.6125Q179.35938 35.6125 180.0 34.846874Q180.64062 34.065624 180.64062 32.39375Q180.64062 30.6125 179.98438 29.83125Q179.34375 29.05 178.34375 29.05Q177.35938 29.05 176.70312 29.815624Q176.04688 30.58125 176.04688 32.14375ZM184.79688 32.221874Q184.79688 30.846874 185.46875 29.565624Q186.15625 28.284374 187.39062 27.6125Q188.625 26.940624 190.14062 26.940624Q192.5 26.940624 194.0 28.471874Q195.5 30.003124 195.5 32.33125Q195.5 34.690624 193.98438 36.2375Q192.46875 37.784374 190.15625 37.784374Q188.73438 37.784374 187.4375 37.14375Q186.15625 36.4875 185.46875 35.253124Q184.79688 34.003124 184.79688 32.221874ZM187.60938 32.3625Q187.60938 33.909374 188.34375 34.7375Q189.07812 35.55 190.15625 35.55Q191.23438 35.55 191.95312 34.7375Q192.6875 33.909374 192.6875 32.346874Q192.6875 30.815624 191.95312 30.003124Q191.23438 29.175 190.15625 29.175Q189.07812 29.175 188.34375 30.003124Q187.60938 30.815624 187.60938 32.3625ZM199.48438 30.346874L197.0 29.89375Q197.42188 28.39375 198.4375 27.675Q199.46875 26.940624 201.48438 26.940624Q203.32812 26.940624 204.21875 27.378124Q205.125 27.815624 205.48438 28.4875Q205.85938 29.14375 205.85938 30.940624L205.82812 34.14375Q205.82812 35.503124 205.95312 36.159374Q206.09375 36.8 206.45312 37.55L203.73438 37.55Q203.625 37.26875 203.46875 36.7375Q203.40625 36.4875 203.375 36.409374Q202.67188 37.096874 201.85938 37.440624Q201.0625 37.784374 200.15625 37.784374Q198.5625 37.784374 197.64062 36.925Q196.71875 36.05 196.71875 34.721874Q196.71875 33.83125 197.125 33.14375Q197.54688 32.45625 198.29688 32.096874Q199.0625 31.721874 200.5 31.45625Q202.42188 31.096874 203.15625 30.784374L203.15625 30.503124Q203.15625 29.721874 202.76562 29.39375Q202.375 29.05 201.29688 29.05Q200.5625 29.05 200.14062 29.33125Q199.73438 29.6125 199.48438 30.346874ZM203.15625 32.565624Q202.625 32.7375 201.48438 32.9875Q200.34375 33.2375 200.0 33.471874Q199.45312 33.846874 199.45312 34.440624Q199.45312 35.003124 199.875 35.425Q200.3125 35.846874 200.98438 35.846874Q201.71875 35.846874 202.39062 35.3625Q202.89062 34.9875 203.04688 34.45625Q203.15625 34.096874 203.15625 33.1125L203.15625 32.565624ZM211.0625 37.55L208.3125 37.55L208.3125 27.175L210.875 27.175L210.875 28.659374Q211.51562 27.6125 212.03125 27.284374Q212.5625 26.940624 213.23438 26.940624Q214.17188 26.940624 215.03125 27.45625L214.1875 29.846874Q213.5 29.409374 212.90625 29.409374Q212.32812 29.409374 211.92188 29.721874Q211.51562 30.034374 211.28125 30.878124Q211.0625 31.70625 211.0625 34.346874L211.0625 37.55ZM225.95312 37.55L223.40625 37.55L223.40625 36.01875Q222.76562 36.909374 221.89062 37.346874Q221.03125 37.784374 220.15625 37.784374Q218.375 37.784374 217.09375 36.346874Q215.82812 34.909374 215.82812 32.33125Q215.82812 29.690624 217.0625 28.315624Q218.29688 26.940624 220.20312 26.940624Q221.9375 26.940624 223.20312 28.39375L223.20312 23.2375L225.95312 23.2375L225.95312 37.55ZM218.625 32.14375Q218.625 33.8 219.07812 34.534374Q219.75 35.6125 220.9375 35.6125Q221.89062 35.6125 222.54688 34.815624Q223.21875 34.003124 223.21875 32.409374Q223.21875 30.6125 222.5625 29.83125Q221.92188 29.05 220.92188 29.05Q219.9375 29.05 219.28125 29.83125Q218.625 30.596874 218.625 32.14375ZM234.45312 37.55L234.45312 23.2375L239.09375 23.2375Q241.73438 23.2375 242.53125 23.440624Q243.76562 23.76875 244.59375 24.846874Q245.42188 25.925 245.42188 27.64375Q245.42188 28.95625 244.9375 29.8625Q244.46875 30.753124 243.71875 31.26875Q242.98438 31.784374 242.23438 31.940624Q241.1875 32.14375 239.23438 32.14375L237.34375 32.14375L237.34375 37.55L234.45312 37.55ZM237.34375 25.659374L237.34375 29.721874L238.92188 29.721874Q240.64062 29.721874 241.21875 29.503124Q241.79688 29.26875 242.10938 28.8Q242.4375 28.315624 242.4375 27.675Q242.4375 26.89375 241.98438 26.39375Q241.53125 25.878124 240.82812 25.753124Q240.3125 25.659374 238.75 25.659374L237.34375 25.659374ZM253.4375 34.253124L256.17188 34.70625Q255.65625 36.20625 254.51562 37.003124Q253.375 37.784374 251.67188 37.784374Q248.95312 37.784374 247.65625 36.01875Q246.64062 34.596874 246.64062 32.440624Q246.64062 29.8625 247.98438 28.409374Q249.32812 26.940624 251.39062 26.940624Q253.70312 26.940624 255.03125 28.471874Q256.375 30.003124 256.32812 33.159374L249.45312 33.159374Q249.48438 34.378124 250.10938 35.065624Q250.75 35.7375 251.6875 35.7375Q252.34375 35.7375 252.78125 35.39375Q253.21875 35.034374 253.4375 34.253124ZM253.59375 31.471874Q253.5625 30.284374 252.96875 29.675Q252.39062 29.05 251.5625 29.05Q250.65625 29.05 250.07812 29.690624Q249.48438 30.346874 249.5 31.471874L253.59375 31.471874ZM261.0625 37.55L258.3125 37.55L258.3125 27.175L260.875 27.175L260.875 28.659374Q261.51562 27.6125 262.03125 27.284374Q262.5625 26.940624 263.23438 26.940624Q264.17188 26.940624 265.03125 27.45625L264.1875 29.846874Q263.5 29.409374 262.90625 29.409374Q262.32812 29.409374 261.92188 29.721874Q261.51562 30.034374 261.28125 30.878124Q261.0625 31.70625 261.0625 34.346874L261.0625 37.55ZM265.23438 27.175L266.76562 27.175L266.76562 26.39375Q266.76562 25.08125 267.03125 24.440624Q267.3125 23.8 268.0625 23.39375Q268.8125 22.9875 269.95312 22.9875Q271.125 22.9875 272.25 23.346874L271.875 25.253124Q271.21875 25.096874 270.60938 25.096874Q270.01562 25.096874 269.75 25.378124Q269.5 25.659374 269.5 26.440624L269.5 27.175L271.54688 27.175L271.54688 29.33125L269.5 29.33125L269.5 37.55L266.76562 37.55L266.76562 29.33125L265.23438 29.33125L265.23438 27.175ZM279.375 37.55L279.375 23.2375L282.26562 23.2375L282.26562 37.55L279.375 37.55ZM284.23438 27.175L286.76562 27.175L286.76562 28.596874Q288.125 26.940624 290.0 26.940624Q290.98438 26.940624 291.71875 27.3625Q292.45312 27.76875 292.92188 28.596874Q293.60938 27.76875 294.39062 27.3625Q295.1875 26.940624 296.09375 26.940624Q297.23438 26.940624 298.01562 27.409374Q298.8125 27.878124 299.20312 28.76875Q299.48438 29.440624 299.48438 30.925L299.48438 37.55L296.73438 37.55L296.73438 31.628124Q296.73438 30.08125 296.45312 29.628124Q296.07812 29.05 295.28125 29.05Q294.70312 29.05 294.1875 29.409374Q293.6875 29.753124 293.46875 30.425Q293.25 31.096874 293.25 32.565624L293.25 37.55L290.5 37.55L290.5 31.8625Q290.5 30.346874 290.34375 29.909374Q290.20312 29.471874 289.89062 29.26875Q289.59375 29.05 289.0625 29.05Q288.4375 29.05 287.92188 29.39375Q287.42188 29.721874 287.1875 30.378124Q286.96875 31.01875 286.96875 32.503124L286.96875 37.55L284.23438 37.55L284.23438 27.175ZM301.35938 27.175L303.92188 27.175L303.92188 28.70625Q304.42188 27.925 305.26562 27.440624Q306.10938 26.940624 307.15625 26.940624Q308.95312 26.940624 310.20312 28.3625Q311.46875 29.76875 311.46875 32.3Q311.46875 34.909374 310.20312 36.346874Q308.9375 37.784374 307.125 37.784374Q306.26562 37.784374 305.5625 37.440624Q304.875 37.096874 304.10938 36.26875L304.10938 41.503124L301.35938 41.503124L301.35938 27.175ZM304.07812 32.190624Q304.07812 33.940624 304.76562 34.784374Q305.45312 35.6125 306.45312 35.6125Q307.40625 35.6125 308.04688 34.846874Q308.6875 34.065624 308.6875 32.33125Q308.6875 30.690624 308.03125 29.909374Q307.375 29.1125 306.40625 29.1125Q305.40625 29.1125 304.73438 29.89375Q304.07812 30.659374 304.07812 32.190624ZM316.0625 37.55L313.3125 37.55L313.3125 27.175L315.875 27.175L315.875 28.659374Q316.51562 27.6125 317.03125 27.284374Q317.5625 26.940624 318.23438 26.940624Q319.17188 26.940624 320.03125 27.45625L319.1875 29.846874Q318.5 29.409374 317.90625 29.409374Q317.32812 29.409374 316.92188 29.721874Q316.51562 30.034374 316.28125 30.878124Q316.0625 31.70625 316.0625 34.346874L316.0625 37.55ZM320.79688 32.221874Q320.79688 30.846874 321.46875 29.565624Q322.15625 28.284374 323.39062 27.6125Q324.625 26.940624 326.14062 26.940624Q328.5 26.940624 330.0 28.471874Q331.5 30.003124 331.5 32.33125Q331.5 34.690624 329.98438 36.2375Q328.46875 37.784374 326.15625 37.784374Q324.73438 37.784374 323.4375 37.14375Q322.15625 36.4875 321.46875 35.253124Q320.79688 34.003124 320.79688 32.221874ZM323.60938 32.3625Q323.60938 33.909374 324.34375 34.7375Q325.07812 35.55 326.15625 35.55Q327.23438 35.55 327.95312 34.7375Q328.6875 33.909374 328.6875 32.346874Q328.6875 30.815624 327.95312 30.003124Q327.23438 29.175 326.15625 29.175Q325.07812 29.175 324.34375 30.003124Q323.60938 30.815624 323.60938 32.3625ZM336.28125 37.55L332.10938 27.175L334.98438 27.175L336.9375 32.471874L337.51562 34.2375Q337.73438 33.565624 337.79688 33.346874Q337.92188 32.909374 338.07812 32.471874L340.0625 27.175L342.875 27.175L338.76562 37.55L336.28125 37.55ZM350.4375 34.253124L353.17188 34.70625Q352.65625 36.20625 351.51562 37.003124Q350.375 37.784374 348.67188 37.784374Q345.95312 37.784374 344.65625 36.01875Q343.64062 34.596874 343.64062 32.440624Q343.64062 29.8625 344.98438 28.409374Q346.32812 26.940624 348.39062 26.940624Q350.70312 26.940624 352.03125 28.471874Q353.375 30.003124 353.32812 33.159374L346.45312 33.159374Q346.48438 34.378124 347.10938 35.065624Q347.75 35.7375 348.6875 35.7375Q349.34375 35.7375 349.78125 35.39375Q350.21875 35.034374 350.4375 34.253124ZM350.59375 31.471874Q350.5625 30.284374 349.96875 29.675Q349.39062 29.05 348.5625 29.05Q347.65625 29.05 347.07812 29.690624Q346.48438 30.346874 346.5 31.471874L350.59375 31.471874ZM355.23438 27.175L357.76562 27.175L357.76562 28.596874Q359.125 26.940624 361.0 26.940624Q361.98438 26.940624 362.71875 27.3625Q363.45312 27.76875 363.92188 28.596874Q364.60938 27.76875 365.39062 27.3625Q366.1875 26.940624 367.09375 26.940624Q368.23438 26.940624 369.01562 27.409374Q369.8125 27.878124 370.20312 28.76875Q370.48438 29.440624 370.48438 30.925L370.48438 37.55L367.73438 37.55L367.73438 31.628124Q367.73438 30.08125 367.45312 29.628124Q367.07812 29.05 366.28125 29.05Q365.70312 29.05 365.1875 29.409374Q364.6875 29.753124 364.46875 30.425Q364.25 31.096874 364.25 32.565624L364.25 37.55L361.5 37.55L361.5 31.8625Q361.5 30.346874 361.34375 29.909374Q361.20312 29.471874 360.89062 29.26875Q360.59375 29.05 360.0625 29.05Q359.4375 29.05 358.92188 29.39375Q358.42188 29.721874 358.1875 30.378124Q357.96875 31.01875 357.96875 32.503124L357.96875 37.55L355.23438 37.55L355.23438 27.175ZM378.4375 34.253124L381.17188 34.70625Q380.65625 36.20625 379.51562 37.003124Q378.375 37.784374 376.67188 37.784374Q373.95312 37.784374 372.65625 36.01875Q371.64062 34.596874 371.64062 32.440624Q371.64062 29.8625 372.98438 28.409374Q374.32812 26.940624 376.39062 26.940624Q378.70312 26.940624 380.03125 28.471874Q381.375 30.003124 381.32812 33.159374L374.45312 33.159374Q374.48438 34.378124 375.10938 35.065624Q375.75 35.7375 376.6875 35.7375Q377.34375 35.7375 377.78125 35.39375Q378.21875 35.034374 378.4375 34.253124ZM378.59375 31.471874Q378.5625 30.284374 377.96875 29.675Q377.39062 29.05 376.5625 29.05Q375.65625 29.05 375.07812 29.690624Q374.48438 30.346874 374.5 31.471874L378.59375 31.471874ZM392.875 37.55L390.125 37.55L390.125 32.253124Q390.125 30.58125 389.95312 30.096874Q389.78125 29.596874 389.375 29.33125Q388.98438 29.05 388.42188 29.05Q387.71875 29.05 387.14062 29.440624Q386.57812 29.83125 386.35938 30.471874Q386.15625 31.1125 386.15625 32.846874L386.15625 37.55L383.42188 37.55L383.42188 27.175L385.96875 27.175L385.96875 28.70625Q387.32812 26.940624 389.39062 26.940624Q390.29688 26.940624 391.04688 27.26875Q391.79688 27.596874 392.17188 28.1125Q392.5625 28.6125 392.71875 29.26875Q392.875 29.909374 392.875 31.096874L392.875 37.55ZM400.1875 27.175L400.1875 29.3625L398.3125 29.3625L398.3125 33.55Q398.3125 34.815624 398.35938 35.034374Q398.42188 35.2375 398.60938 35.378124Q398.8125 35.503124 399.07812 35.503124Q399.45312 35.503124 400.1875 35.2375L400.42188 37.378124Q399.45312 37.784374 398.25 37.784374Q397.5 37.784374 396.90625 37.534374Q396.3125 37.284374 396.03125 36.89375Q395.76562 36.4875 395.65625 35.815624Q395.5625 35.346874 395.5625 33.89375L395.5625 29.3625L394.29688 29.3625L394.29688 27.175L395.5625 27.175L395.5625 25.1125L398.3125 23.51875L398.3125 27.175L400.1875 27.175ZM401.46875 34.596874L404.21875 34.175Q404.40625 34.971874 404.9375 35.39375Q405.46875 35.8 406.4375 35.8Q407.5 35.8 408.04688 35.409374Q408.40625 35.14375 408.40625 34.675Q408.40625 34.3625 408.20312 34.159374Q408.0 33.971874 407.29688 33.8Q403.96875 33.065624 403.07812 32.45625Q401.84375 31.628124 401.84375 30.128124Q401.84375 28.784374 402.90625 27.8625Q403.98438 26.940624 406.21875 26.940624Q408.34375 26.940624 409.375 27.64375Q410.42188 28.33125 410.8125 29.690624L408.21875 30.159374Q408.04688 29.565624 407.57812 29.2375Q407.125 28.909374 406.26562 28.909374Q405.1875 28.909374 404.71875 29.221874Q404.40625 29.440624 404.40625 29.76875Q404.40625 30.065624 404.67188 30.26875Q405.04688 30.55 407.23438 31.05Q409.42188 31.55 410.29688 32.26875Q411.15625 33.003124 411.15625 34.3Q411.15625 35.7375 409.96875 36.76875Q408.78125 37.784374 406.4375 37.784374Q404.32812 37.784374 403.07812 36.925Q401.84375 36.065624 401.46875 34.596874ZM418.75 33.753124L421.40625 33.425Q421.53125 34.440624 422.09375 34.9875Q422.65625 35.51875 423.4375 35.51875Q424.29688 35.51875 424.875 34.878124Q425.45312 34.221874 425.45312 33.128124Q425.45312 32.096874 424.89062 31.503124Q424.34375 30.89375 423.53125 30.89375Q423.01562 30.89375 422.28125 31.096874L422.57812 28.8625Q423.6875 28.89375 424.26562 28.378124Q424.85938 27.8625 424.85938 27.01875Q424.85938 26.284374 424.42188 25.8625Q424.0 25.425 423.29688 25.425Q422.59375 25.425 422.09375 25.925Q421.59375 26.409374 421.48438 27.346874L418.95312 26.909374Q419.21875 25.6125 419.75 24.846874Q420.28125 24.065624 421.23438 23.628124Q422.1875 23.175 423.375 23.175Q425.39062 23.175 426.60938 24.45625Q427.625 25.51875 427.625 26.846874Q427.625 28.7375 425.5625 29.846874Q426.79688 30.1125 427.53125 31.034374Q428.26562 31.95625 428.26562 33.253124Q428.26562 35.14375 426.89062 36.471874Q425.51562 37.8 423.45312 37.8Q421.51562 37.8 420.23438 36.675Q418.95312 35.55 418.75 33.753124Z" fill-rule="nonzero"/></svg>